<svg width="16" height="16" viewBox="0 0 16 16" fill="none" xmlns="http://www.w3.org/2000/svg">
<path fill-rule="evenodd" clip-rule="evenodd" d="M1.28605 5.34255C1.38105 5.23097 1.52021 5.16669 1.66675 5.16669H14.3334C14.48 5.16669 14.6191 5.23097 14.7141 5.34255C14.8091 5.45412 14.8504 5.60176 14.827 5.74642L13.427 14.4131C13.3879 14.6553 13.1788 14.8334 12.9334 14.8334H3.06675C2.82139 14.8334 2.61228 14.6553 2.57315 14.4131L1.17315 5.74642C1.14978 5.60176 1.19105 5.45412 1.28605 5.34255ZM2.254 6.16669L3.49246 13.8334H12.5077L13.7462 6.16669H2.254Z" fill="white"/>
<path d="M8 7.33331V12.6666" stroke="white" stroke-width="1.5" stroke-linecap="round"/>
<path d="M10.6667 10L5.33341 10" stroke="white" stroke-width="1.5" stroke-linecap="round"/>
<path fill-rule="evenodd" clip-rule="evenodd" d="M3.83325 5.66669C3.83325 3.22325 5.65868 1.16669 7.99992 1.16669C10.3412 1.16669 12.1666 3.22325 12.1666 5.66669C12.1666 5.94283 11.9427 6.16669 11.6666 6.16669C11.3904 6.16669 11.1666 5.94283 11.1666 5.66669C11.1666 3.69185 9.70875 2.16669 7.99992 2.16669C6.29109 2.16669 4.83325 3.69185 4.83325 5.66669C4.83325 5.94283 4.60939 6.16669 4.33325 6.16669C4.05711 6.16669 3.83325 5.94283 3.83325 5.66669Z" fill="white"/>
</svg>
