<svg width="14" height="14" viewBox="0 0 14 14" fill="none" xmlns="http://www.w3.org/2000/svg">
<path d="M12 7.5C12.2761 7.5 12.5 7.27614 12.5 7C12.5 6.72386 12.2761 6.5 12 6.5V7.5ZM1.64645 6.64645C1.45118 6.84171 1.45118 7.15829 1.64645 7.35355L4.82843 10.5355C5.02369 10.7308 5.34027 10.7308 5.53553 10.5355C5.7308 10.3403 5.7308 10.0237 5.53553 9.82843L2.70711 7L5.53553 4.17157C5.7308 3.97631 5.7308 3.65973 5.53553 3.46447C5.34027 3.2692 5.02369 3.2692 4.82843 3.46447L1.64645 6.64645ZM12 6.5L2 6.5V7.5L12 7.5V6.5Z" fill="#FFAAC4"/>
</svg>
