<svg width="65" height="64" viewBox="0 0 65 64" fill="none" xmlns="http://www.w3.org/2000/svg">
<rect x="0.333496" width="64" height="64" rx="6" fill="#FF749F"/>
<g clip-path="url(#clip0_1_603)">
<path d="M50.3841 34.4764C49.8542 34.4764 49.3002 34.3073 48.7703 34.1866C47.6972 33.9494 46.6426 33.6345 45.6149 33.2444C44.4975 32.8368 43.2693 32.8579 42.1665 33.3039C41.0637 33.7498 40.1644 34.5891 39.6415 35.6601L39.1116 36.7472C36.7656 35.4383 34.6098 33.8127 32.7046 31.9158C30.8132 30.0051 29.1924 27.843 27.8873 25.4902L28.8989 24.8138C29.9668 24.2894 30.8036 23.3874 31.2483 22.2814C31.693 21.1754 31.7141 19.9436 31.3076 18.8229C30.9251 17.7901 30.6113 16.7329 30.3682 15.6584C30.2478 15.127 30.1514 14.5714 30.0792 14.0158C29.7867 12.3142 28.898 10.7733 27.5733 9.67057C26.2485 8.56781 24.5747 7.97567 22.8532 8.00077H15.6273C14.5892 7.99099 13.5613 8.20565 12.6134 8.63012C11.6655 9.05459 10.8199 9.67892 10.1342 10.4606C9.4485 11.2423 8.93879 12.1629 8.63977 13.1599C8.34074 14.1569 8.25942 15.2068 8.40134 16.2382C9.68452 26.3583 14.293 35.7613 21.4987 42.9618C28.7045 50.1623 38.0968 54.7499 48.1922 56H49.1075C50.8836 56.0026 52.5986 55.349 53.9248 54.1641C54.6868 53.4806 55.2955 52.6426 55.7107 51.7057C56.1259 50.7688 56.3382 49.7541 56.3334 48.7288V41.4819C56.3039 39.8039 55.6947 38.1882 54.6096 36.9106C53.5246 35.633 52.0311 34.7727 50.3841 34.4764ZM51.5884 48.9704C51.588 49.3134 51.5147 49.6524 51.3735 49.9647C51.2323 50.2771 51.0264 50.5558 50.7694 50.7822C50.5011 51.0165 50.1865 51.1914 49.8461 51.2955C49.5058 51.3995 49.1474 51.4304 48.7944 51.3861C39.7737 50.2261 31.3949 46.0873 24.9794 39.6225C18.5639 33.1577 14.4769 24.7349 13.3632 15.6826C13.3248 15.3287 13.3584 14.9708 13.4619 14.6303C13.5654 14.2898 13.7367 13.9739 13.9653 13.7017C14.191 13.4441 14.4689 13.2375 14.7804 13.0959C15.0918 12.9543 15.4298 12.8808 15.7718 12.8804H22.9977C23.5579 12.8679 24.1048 13.0516 24.5444 13.3999C24.9841 13.7483 25.2889 14.2394 25.4064 14.7888C25.5027 15.4491 25.6232 16.1013 25.7677 16.7455C26.0459 18.0189 26.4162 19.2703 26.8757 20.4897L23.5036 22.0599C23.2152 22.1926 22.9559 22.3811 22.7404 22.6146C22.5249 22.848 22.3575 23.1219 22.2479 23.4204C22.1382 23.7189 22.0884 24.0363 22.1014 24.3541C22.1143 24.672 22.1897 24.9842 22.3233 25.2728C25.7898 32.7197 31.7586 38.7058 39.1839 42.1824C39.7703 42.424 40.428 42.424 41.0144 42.1824C41.3148 42.0746 41.5909 41.9081 41.8265 41.6925C42.0622 41.4768 42.2529 41.2164 42.3874 40.9263L43.8807 37.5443C45.1259 37.9909 46.3968 38.362 47.6864 38.6555C48.3287 38.8005 48.979 38.9213 49.6374 39.0179C50.1852 39.1357 50.6749 39.4414 51.0222 39.8823C51.3695 40.3232 51.5527 40.8718 51.5402 41.4335L51.5884 48.9704Z" fill="white"/>
</g>
<defs>
<clipPath id="clip0_1_603">
<rect width="48" height="48" fill="white" transform="translate(8.3335 8)"/>
</clipPath>
</defs>
</svg>
