<svg width="20" height="20" viewBox="0 0 20 20" fill="none" xmlns="http://www.w3.org/2000/svg">
<path fill-rule="evenodd" clip-rule="evenodd" d="M2.6875 4.97906C2.6875 4.63389 2.96732 4.35406 3.3125 4.35406H16.6458C16.991 4.35406 17.2708 4.63389 17.2708 4.97906C17.2708 5.32424 16.991 5.60406 16.6458 5.60406H3.3125C2.96732 5.60406 2.6875 5.32424 2.6875 4.97906Z" fill="#FF749F"/>
<path fill-rule="evenodd" clip-rule="evenodd" d="M2.6875 9.97906C2.6875 9.63389 2.96732 9.35406 3.3125 9.35406H16.6458C16.991 9.35406 17.2708 9.63389 17.2708 9.97906C17.2708 10.3242 16.991 10.6041 16.6458 10.6041H3.3125C2.96732 10.6041 2.6875 10.3242 2.6875 9.97906Z" fill="#FF749F"/>
<path fill-rule="evenodd" clip-rule="evenodd" d="M2.6875 14.9791C2.6875 14.6339 2.96732 14.3541 3.3125 14.3541H16.6458C16.991 14.3541 17.2708 14.6339 17.2708 14.9791C17.2708 15.3242 16.991 15.6041 16.6458 15.6041H3.3125C2.96732 15.6041 2.6875 15.3242 2.6875 14.9791Z" fill="#FF749F"/>
</svg>
