<svg width="32" height="32" viewBox="0 0 32 32" fill="none" xmlns="http://www.w3.org/2000/svg">
<rect width="32" height="32" rx="16" fill="#FF749F"/>
<path fill-rule="evenodd" clip-rule="evenodd" d="M10.3134 10.3132C10.5087 10.1179 10.8253 10.1179 11.0205 10.3132L21.6872 20.9799C21.8825 21.1751 21.8825 21.4917 21.6872 21.687C21.4919 21.8822 21.1754 21.8822 20.9801 21.687L10.3134 11.0203C10.1182 10.825 10.1182 10.5085 10.3134 10.3132Z" fill="white"/>
<path fill-rule="evenodd" clip-rule="evenodd" d="M21.6872 10.3132C21.8825 10.5085 21.8825 10.825 21.6872 11.0203L11.0205 21.687C10.8253 21.8822 10.5087 21.8822 10.3134 21.687C10.1182 21.4917 10.1182 21.1751 10.3134 20.9799L20.9801 10.3132C21.1754 10.1179 21.4919 10.1179 21.6872 10.3132Z" fill="white"/>
</svg>
