<svg width="65" height="64" viewBox="0 0 65 64" fill="none" xmlns="http://www.w3.org/2000/svg">
<rect x="0.666748" width="64" height="64" rx="6" fill="#FF749F"/>
<g clip-path="url(#clip0_1_595)">
<path d="M8.66675 33.1053V44.1579C8.66675 44.7442 8.89662 45.3064 9.30579 45.721C9.71496 46.1355 10.2699 46.3684 10.8486 46.3684H13.0304C13.0304 48.1272 13.72 49.814 14.9475 51.0577C16.175 52.3013 17.8399 53 19.5758 53C21.3118 53 22.9767 52.3013 24.2042 51.0577C25.4317 49.814 26.1213 48.1272 26.1213 46.3684H39.2122C39.2122 48.1272 39.9018 49.814 41.1293 51.0577C42.3568 52.3013 44.0217 53 45.7577 53C47.4936 53 49.1585 52.3013 50.386 51.0577C51.6135 49.814 52.3031 48.1272 52.3031 46.3684H54.4849C55.0636 46.3684 55.6185 46.1355 56.0277 45.721C56.4369 45.3064 56.6667 44.7442 56.6667 44.1579V17.6316C56.6667 15.8728 55.9771 14.186 54.7496 12.9423C53.5221 11.6987 51.8573 11 50.1213 11H30.4849C28.749 11 27.0841 11.6987 25.8566 12.9423C24.6291 14.186 23.9395 15.8728 23.9395 17.6316V22.0526H19.5758C18.5597 22.0526 17.5575 22.2923 16.6486 22.7527C15.7398 23.2132 14.9492 23.8816 14.3395 24.7053L9.10311 31.7789C9.0393 31.875 8.98796 31.979 8.95038 32.0884L8.81948 32.3316C8.72318 32.5781 8.67145 32.8402 8.66675 33.1053ZM43.5758 46.3684C43.5758 45.9312 43.7038 45.5038 43.9435 45.1403C44.1833 44.7768 44.524 44.4935 44.9227 44.3262C45.3214 44.1589 45.7601 44.1151 46.1833 44.2004C46.6065 44.2857 46.9953 44.4962 47.3004 44.8053C47.6056 45.1145 47.8134 45.5084 47.8976 45.9372C47.9817 46.366 47.9385 46.8104 47.7734 47.2144C47.6083 47.6183 47.3286 47.9635 46.9698 48.2064C46.611 48.4493 46.1892 48.5789 45.7577 48.5789C45.179 48.5789 44.6241 48.3461 44.2149 47.9315C43.8057 47.5169 43.5758 46.9547 43.5758 46.3684ZM28.3031 17.6316C28.3031 17.0453 28.533 16.4831 28.9422 16.0685C29.3513 15.6539 29.9063 15.4211 30.4849 15.4211H50.1213C50.6999 15.4211 51.2549 15.6539 51.6641 16.0685C52.0732 16.4831 52.3031 17.0453 52.3031 17.6316V41.9474H50.6013C49.9878 41.2635 49.24 40.7171 48.4059 40.3433C47.5718 39.9694 46.6698 39.7762 45.7577 39.7762C44.8456 39.7762 43.9435 39.9694 43.1094 40.3433C42.2753 40.7171 41.5275 41.2635 40.914 41.9474H28.3031V17.6316ZM23.9395 30.8947H15.2122L17.8304 27.3579C18.0336 27.0834 18.2971 26.8605 18.6001 26.7071C18.9031 26.5536 19.2371 26.4737 19.5758 26.4737H23.9395V30.8947ZM17.394 46.3684C17.394 45.9312 17.522 45.5038 17.7617 45.1403C18.0015 44.7768 18.3422 44.4935 18.7409 44.3262C19.1396 44.1589 19.5783 44.1151 20.0015 44.2004C20.4247 44.2857 20.8135 44.4962 21.1186 44.8053C21.4237 45.1145 21.6315 45.5084 21.7157 45.9372C21.7999 46.366 21.7567 46.8104 21.5916 47.2144C21.4264 47.6183 21.1468 47.9635 20.788 48.2064C20.4292 48.4493 20.0074 48.5789 19.5758 48.5789C18.9972 48.5789 18.4422 48.3461 18.0331 47.9315C17.6239 47.5169 17.394 46.9547 17.394 46.3684ZM13.0304 35.3158H23.9395V41.4611C22.6518 40.2951 20.9616 39.692 19.237 39.7831C17.5124 39.8742 15.8932 40.6521 14.7322 41.9474H13.0304V35.3158Z" fill="white"/>
</g>
<defs>
<clipPath id="clip0_1_595">
<rect width="48" height="48" fill="white" transform="translate(8.66675 8)"/>
</clipPath>
</defs>
</svg>
