<svg width="32" height="32" viewBox="0 0 32 32" fill="none" xmlns="http://www.w3.org/2000/svg">
<!-- <path d="M0 0H28C30.2091 0 32 1.79086 32 4V28C32 30.2091 30.2091 32 28 32H0V0Z" fill-rule="current"/> -->
<g clip-path="url(#clip0_477_3115)">
<path d="M25.8906 14.6875L23.8906 12.1875C23.7179 11.9717 23.4032 11.9368 23.1875 12.1093C22.9717 12.2819 22.9368 12.5967 23.1092 12.8125L24.4596 14.4999H19.5C19.2238 14.4999 19 14.7238 19 15C19 15.276 19.2238 15.4998 19.5 15.4998H24.4599L23.1095 17.1873C22.9369 17.4031 22.972 17.7179 23.1878 17.8904C23.4034 18.0632 23.7182 18.0281 23.8909 17.8123L25.8909 15.3125C26.0367 15.1295 26.0366 14.8701 25.8906 14.6875Z" fill="#73D982"/>
<path d="M8.50003 15.9998C8.77591 16 8.99976 15.7765 8.99991 15.5004C8.99991 15.5003 8.99991 15.5001 8.99991 15.4998V14.4999C8.99991 14.2237 8.77606 13.9999 8.50003 13.9999C8.22385 13.9999 8 14.2237 8 14.4999V15.4998C8 15.776 8.22385 15.9998 8.50003 15.9998Z" fill="#73D982"/>
<path d="M16.4999 6H6.50003C6.224 5.99985 6.00015 6.22339 6 6.49942V6.50003V23.4997C6 23.7231 6.14816 23.9192 6.3627 23.9806L13.3627 25.9806C13.6282 26.0565 13.9048 25.9026 13.9807 25.6371C13.9933 25.5924 13.9999 25.5462 13.9999 25.4997V23.9997H16.4997C16.7758 23.9999 16.9996 23.7763 16.9998 23.5003C16.9998 23.5001 16.9998 23.5 16.9998 23.4997V6.50003C16.9999 6.224 16.7764 6.00015 16.5003 6C16.5002 6 16.5 6 16.4999 6ZM13 24.8367L7.00006 23.1228V7.16318L13 8.87704V24.8367ZM15.9998 22.9998H13.9999V8.5C13.9997 8.27661 13.8517 8.08038 13.637 8.01904L10.0704 7.00006H15.9998V22.9998Z" fill="#73D982"/>
</g>
<defs>
<clipPath id="clip0_477_3115">
<rect width="20" fill-rule="current" height="20" transform="translate(6 6)"/>
</clipPath>
</defs>
</svg>
