<svg width="18" height="16" viewBox="0 0 18 16" fill="none" xmlns="http://www.w3.org/2000/svg">
<path fill-rule="current" clip-rule="evenodd" d="M0 5.20833C0 2.33186 2.33185 0 5.20833 0C6.68143 0 8.01157 0.61198 8.95833 1.59393C9.90509 0.61198 11.2352 0 12.7083 0C15.5848 0 17.9167 2.33186 17.9167 5.20833C17.9167 7.74007 16.4307 10.0777 14.6629 11.863C12.889 13.6544 10.7242 14.9994 9.15543 15.5207C9.02747 15.5632 8.88919 15.5632 8.76124 15.5207C7.19243 14.9994 5.02768 13.6544 3.25381 11.863C1.48602 10.0777 0 7.74007 0 5.20833ZM5.20833 1.25C3.02221 1.25 1.25 3.02222 1.25 5.20833C1.25 7.25993 2.47232 9.29726 4.14203 10.9835C5.72636 12.5835 7.61749 13.7689 8.95833 14.2652C10.2992 13.7689 12.1903 12.5835 13.7746 10.9835C15.4444 9.29726 16.6667 7.25993 16.6667 5.20833C16.6667 3.02222 14.8944 1.25 12.7083 1.25C11.3701 1.25 10.1868 1.91351 9.46934 2.93227C9.35228 3.09851 9.16166 3.19742 8.95833 3.19742C8.75501 3.19742 8.56439 3.09851 8.44732 2.93227C7.72991 1.91351 6.54657 1.25 5.20833 1.25Z"/>
</svg>
