<svg width="64" height="64" viewBox="0 0 64 64" fill="none" xmlns="http://www.w3.org/2000/svg">
<rect width="64" height="64" rx="6" fill="#FF749F"/>
<path d="M16.7273 25.6V52H8V25.6H16.7273ZM25.4545 52C24.2972 52 23.1873 51.5364 22.369 50.7113C21.5506 49.8861 21.0909 48.767 21.0909 47.6V25.6C21.0909 24.39 21.5709 23.29 22.3782 22.498L36.7345 8L39.0473 10.332C39.6364 10.926 40.0073 11.74 40.0073 12.642L39.9418 13.346L37.8691 23.4H51.6364C52.7937 23.4 53.9036 23.8636 54.7219 24.6887C55.5403 25.5139 56 26.633 56 27.8V32.2C56 32.772 55.8909 33.3 55.6945 33.806L49.1055 49.316C48.4509 50.9 46.9018 52 45.0909 52H25.4545ZM25.4545 47.6H45.1564L51.6364 32.2V27.8H32.4582L34.9236 16.096L25.4545 25.666V47.6Z" fill="white"/>
</svg>
