<svg width="274" height="40" viewBox="0 0 274 40" fill="none" xmlns="http://www.w3.org/2000/svg">
<mask id="mask0_55_1723" style="mask-type:luminance" maskUnits="userSpaceOnUse" x="0" y="0" width="40" height="40">
<path d="M40 0H0V40H40V0Z" fill="white"/>
</mask>
<g mask="url(#mask0_55_1723)">
<path d="M22.7452 29.8679C20.2546 28.5689 19.0253 26.0016 19.9995 24.1337C20.9738 22.2659 23.7827 21.8046 26.2733 23.1036C28.7638 24.4026 32.401 30.6018 32.401 30.6018C32.401 30.6018 25.2359 31.1669 22.7452 29.8679Z" fill="#73D982"/>
<path d="M17.2545 29.8679C19.745 28.5689 20.9743 26.0016 20.0001 24.1337C19.0259 22.2659 16.217 21.8046 13.7264 23.1036C11.2358 24.4026 7.59863 30.6018 7.59863 30.6018C7.59863 30.6018 14.7638 31.1669 17.2545 29.8679Z" fill="#73D982"/>
<path d="M16.1855 29.2198C16.1855 26.4109 17.8933 24.1337 20.0001 24.1337C22.1069 24.1337 23.8147 26.4109 23.8147 29.2198C23.8147 32.0288 20.0001 38.1205 20.0001 38.1205C20.0001 38.1205 16.1855 32.0288 16.1855 29.2198Z" fill="#73D982"/>
<path d="M18.7285 29.2198C18.7285 27.0055 19.7902 25.1227 21.2717 24.4243C20.8738 24.2367 20.4461 24.1337 20.0001 24.1337C17.8933 24.1337 16.1855 26.4109 16.1855 29.2198C16.1855 32.0288 20.0001 38.1205 20.0001 38.1205C20.0001 38.1205 20.5713 37.2081 21.2717 35.9271C20.1621 33.8974 18.7285 30.942 18.7285 29.2198Z" fill="#4BBA3A"/>
<path d="M27.005 14.3888C32.3631 11.0372 39.4043 12.6321 39.4043 12.6321C39.4043 12.6321 37.7575 19.6612 32.3993 23.0129C27.041 26.3645 20 24.7694 20 24.7694C20 24.7694 21.6466 17.7405 27.005 14.3888Z" fill="#FFDCE7"/>
<path d="M12.995 14.3887C7.63663 11.0371 0.595703 12.6322 0.595703 12.6322C0.595703 12.6322 2.24233 19.6613 7.60063 23.0129C12.9589 26.3645 19.9999 24.7694 19.9999 24.7694C19.9999 24.7694 18.3533 17.7403 12.995 14.3887Z" fill="#FFDCE7"/>
<path d="M9.50791 21.362C5.60234 18.9192 3.66906 14.5232 2.90765 12.3187C1.50039 12.4274 0.595703 12.6322 0.595703 12.6322C0.595703 12.6322 2.24233 19.6613 7.60063 23.0129C12.959 26.3645 19.9999 24.7694 19.9999 24.7694C19.9999 24.7694 19.8784 24.2521 19.5953 23.4321C17.0761 23.6266 12.9457 23.5124 9.50791 21.362Z" fill="#FF749F"/>
<path d="M9.87336 17.402C6.71323 11.9286 8.55622 4.94836 8.55622 4.94836C8.55622 4.94836 15.5227 6.84246 18.6828 12.3159C21.8429 17.7893 20 24.7696 20 24.7696C20 24.7696 13.0335 22.8754 9.87336 17.402Z" fill="#FF97B7"/>
<path d="M12.3148 16.2429C10.1829 12.5503 10.3281 8.1724 10.6483 5.71422C9.40699 5.18002 8.55618 4.94836 8.55618 4.94836C8.55618 4.94836 6.71327 11.9286 9.87334 17.402C13.0334 22.8754 20 24.7696 20 24.7696C20 24.7696 20.195 24.0301 20.3494 22.8446C18.0378 21.8498 14.3709 19.8041 12.3148 16.2429Z" fill="#FF749F"/>
<path d="M30.1265 17.402C33.2867 11.9286 31.4437 4.94836 31.4437 4.94836C31.4437 4.94836 24.4772 6.84246 21.3172 12.3159C18.1571 17.7893 20.0001 24.7696 20.0001 24.7696C20.0001 24.7696 26.9665 22.8754 30.1265 17.402Z" fill="#FF97B7"/>
<path d="M14.9136 13.3258C14.9136 7.00556 19.9997 1.88202 19.9997 1.88202C19.9997 1.88202 25.0858 7.00556 25.0858 13.3258C25.0858 19.646 19.9997 24.7694 19.9997 24.7694C19.9997 24.7694 14.9136 19.646 14.9136 13.3258Z" fill="#FAD8E8"/>
<path d="M17.4565 13.3258C17.4565 9.06805 19.7646 5.35369 21.2713 3.38266C20.5415 2.4279 19.9997 1.88202 19.9997 1.88202C19.9997 1.88202 14.9136 7.00556 14.9136 13.3258C14.9136 19.646 19.9997 24.7694 19.9997 24.7694C19.9997 24.7694 20.5415 24.2236 21.2713 23.2689C19.7646 21.2979 17.4565 17.5835 17.4565 13.3258Z" fill="#FF749F"/>
<path d="M39.9093 12.3161C39.8252 12.1815 39.6907 12.086 39.5358 12.051C39.3956 12.0192 36.2153 11.3159 32.4555 11.8625C32.5664 10.8551 32.5878 9.91479 32.5659 9.1065C32.4991 6.63648 32.0394 4.87018 32.0199 4.79618C31.9366 4.48101 31.6022 4.28757 31.2872 4.37317C31.1364 4.41418 27.7178 5.36306 24.534 7.83871C24.0778 6.71595 23.5449 5.72646 23.0508 4.92198C21.7579 2.81635 20.4768 1.51644 20.4229 1.46217C20.1931 1.23067 19.8067 1.23059 19.5769 1.46217C19.5229 1.51644 18.2417 2.81635 16.9488 4.92198C16.4549 5.72654 15.922 6.71603 15.4658 7.83888C12.2825 5.3636 8.86411 4.41441 8.71248 4.37324C8.39747 4.28765 8.06306 4.48101 7.97977 4.79626C7.9603 4.87025 7.50064 6.63656 7.4338 9.10658C7.41195 9.91496 7.4334 10.8553 7.54443 11.8627C3.78555 11.3159 0.605547 12.019 0.46393 12.051C0.14597 12.123 -0.0590641 12.4505 0.0152408 12.7683C0.0327244 12.8428 0.455348 14.6183 1.5549 16.8311C2.57585 18.8855 4.39851 21.7132 7.28448 23.5184C8.39793 24.2147 9.57902 24.7017 10.7416 25.039C8.8537 27.2967 7.16139 30.1689 7.08438 30.3003C6.86535 30.6736 7.1214 31.1622 7.55158 31.196C7.67198 31.2056 9.18851 31.322 11.0526 31.322C12.6235 31.322 14.4405 31.2387 15.8767 30.9397C16.7563 34.0402 19.3622 38.2255 19.4948 38.437C19.7242 38.8033 20.2758 38.8033 20.505 38.437C20.6376 38.2255 23.2436 34.0403 24.1232 30.9399C25.5586 31.2389 27.3753 31.3218 28.9464 31.3218C30.812 31.3218 32.3302 31.2053 32.4482 31.196C32.8783 31.1622 33.1343 30.6736 32.9153 30.3002C32.8373 30.167 31.1452 27.2954 29.2583 25.0389C30.4207 24.7017 31.6017 24.2147 32.7151 23.5184C35.6011 21.7132 37.4237 18.8855 38.4447 16.8311C39.5444 14.6183 39.9669 12.8428 39.9844 12.7683C40.0206 12.6135 39.9935 12.4508 39.9093 12.3161ZM20.0002 2.76731C21.1926 4.13929 24.4898 8.38134 24.4898 13.3258C24.4898 14.0989 24.4085 14.8966 24.2477 15.6969C24.1829 16.0196 24.392 16.3338 24.7148 16.3986C25.0374 16.4635 25.3517 16.2543 25.4164 15.9317C25.5926 15.0543 25.6819 14.1776 25.6819 13.3258C25.6819 11.7955 25.3923 10.3385 24.965 9.0198C27.2812 7.1323 29.8589 6.10793 31.0006 5.71486C31.3457 7.50096 32.0774 12.8306 29.6103 17.104C27.6591 20.4835 24.1359 22.4602 21.8969 23.4334C22.7753 22.2584 23.8677 20.5565 24.6563 18.5147C24.775 18.2076 24.6221 17.8625 24.3151 17.744C24.0078 17.6253 23.6629 17.7782 23.5444 18.0853C22.4806 20.8395 20.7842 22.9827 19.9998 23.8848C18.8077 22.5131 15.5098 18.2706 15.5098 13.3258C15.5098 8.39096 18.8088 4.14111 20.0002 2.76731ZM8.9992 5.71486C10.1409 6.10808 12.7186 7.13215 15.0348 9.01957C14.6074 10.3383 14.3178 11.7955 14.3178 13.3258C14.3178 16.7298 15.7486 19.7746 16.9488 21.7296C17.3485 22.3803 17.7469 22.9541 18.1083 23.4379C15.871 22.4678 12.3461 20.4929 10.3895 17.104C7.92206 12.8302 8.65415 7.50033 8.9992 5.71486ZM1.34629 13.1007C2.46873 12.9225 4.97825 12.6409 7.72324 13.0969C7.99678 14.6082 8.49449 16.2059 9.35707 17.7C11.0591 20.648 13.8207 22.5694 15.8376 23.6623C16.4444 23.9911 17.0189 24.2658 17.5335 24.4914C15.0851 24.665 11.1518 24.5311 7.91666 22.5075C3.73254 19.8904 1.87897 14.839 1.34629 13.1007ZM8.62522 30.0661C9.33362 28.9375 10.679 26.8934 12.0388 25.3589C13.4211 25.6418 14.7281 25.7351 15.8047 25.744C15.8671 25.7446 15.9287 25.7448 15.9902 25.7448C16.167 25.7448 16.3395 25.7425 16.5084 25.7387C15.9168 26.7232 15.5893 27.939 15.5893 29.2199C15.5893 29.3944 15.6028 29.58 15.6276 29.7742C13.4614 30.225 10.2315 30.1443 8.62522 30.0661ZM19.9999 36.9676C18.7859 34.8972 16.7814 31.0871 16.7814 29.2197C16.7814 27.8104 17.2467 26.5124 18.0581 25.6501C19.0292 25.5613 19.7229 25.4344 19.9999 25.3785C20.2768 25.4344 20.9702 25.5613 21.9407 25.6501C22.7416 26.5017 23.2184 27.8278 23.2184 29.2197C23.2184 31.0871 21.214 34.8972 19.9999 36.9676ZM31.3743 30.0661C29.7683 30.1441 26.5399 30.2248 24.3721 29.7739C24.3969 29.5799 24.4105 29.3942 24.4105 29.2199C24.4105 27.9362 24.0827 26.7222 23.4912 25.7387C23.6601 25.7425 23.8326 25.7448 24.0095 25.7448C24.0708 25.7448 24.133 25.7446 24.1951 25.744C25.2717 25.7351 26.5786 25.6418 27.9609 25.3589C29.3196 26.8923 30.6657 28.9372 31.3743 30.0661ZM32.0831 22.5075C28.848 24.5311 24.9145 24.665 22.466 24.4914C22.9807 24.2658 23.5551 23.9911 24.1621 23.6623C26.1789 22.5694 28.9406 20.648 30.6426 17.7C31.5052 16.206 32.0029 14.6083 32.2764 13.0971C35.0145 12.6424 37.5292 12.9236 38.6531 13.1012C38.1202 14.8405 36.2665 19.8908 32.0831 22.5075Z" fill="#1A2030"/>
</g>
<path d="M52.0024 32.0661V8.02405H66.4183V10.6067H54.9137V18.7302H65.3381V21.3129H54.9137V32.0661H52.0024ZM73.7993 8.02405V32.0661H71.0289V8.02405H73.7993ZM86.199 32.4418C84.571 32.4418 83.1428 32.0544 81.9142 31.2795C80.6932 30.5048 79.7385 29.4208 79.0497 28.0278C78.3689 26.6347 78.0284 25.0069 78.0284 23.1443C78.0284 21.2659 78.3689 19.6264 79.0497 18.2255C79.7385 16.8246 80.6932 15.7368 81.9142 14.962C83.1428 14.1872 84.571 13.7998 86.199 13.7998C87.8267 13.7998 89.2512 14.1872 90.472 14.962C91.7008 15.7368 92.6555 16.8246 93.3365 18.2255C94.0251 19.6264 94.3695 21.2659 94.3695 23.1443C94.3695 25.0069 94.0251 26.6347 93.3365 28.0278C92.6555 29.4208 91.7008 30.5048 90.472 31.2795C89.2512 32.0544 87.8267 32.4418 86.199 32.4418ZM86.199 29.9531C87.4355 29.9531 88.4529 29.636 89.2512 29.0021C90.0494 28.3683 90.6403 27.5347 91.0238 26.5017C91.4072 25.4686 91.599 24.3494 91.599 23.1443C91.599 21.939 91.4072 20.816 91.0238 19.775C90.6403 18.7342 90.0494 17.8929 89.2512 17.2511C88.4529 16.6094 87.4355 16.2885 86.199 16.2885C84.9624 16.2885 83.9449 16.6094 83.1467 17.2511C82.3484 17.8929 81.7576 18.7342 81.374 19.775C80.9905 20.816 80.7988 21.939 80.7988 23.1443C80.7988 24.3494 80.9905 25.4686 81.374 26.5017C81.7576 27.5347 82.3484 28.3683 83.1467 29.0021C83.9449 29.636 84.9624 29.9531 86.199 29.9531ZM102.071 32.0661L96.5765 14.0346H99.4879L103.385 27.84H103.573L107.424 14.0346H110.382L114.185 27.7931H114.373L118.271 14.0346H121.182L115.688 32.0661H112.965L109.02 18.2137H108.738L104.794 32.0661H102.071ZM131.791 32.4418C130.054 32.4418 128.555 32.0583 127.295 31.2912C126.043 30.5165 125.076 29.4365 124.396 28.0512C123.723 26.6582 123.386 25.0382 123.386 23.1912C123.386 21.3443 123.723 19.7164 124.396 18.3076C125.076 16.8911 126.024 15.7876 127.237 14.9972C128.457 14.1989 129.882 13.7998 131.51 13.7998C132.449 13.7998 133.376 13.9563 134.292 14.2693C135.208 14.5824 136.041 15.0911 136.792 15.7955C137.544 16.492 138.142 17.4155 138.589 18.5659C139.035 19.7164 139.258 21.1329 139.258 22.8155V23.9894H125.358V21.5947H136.44C136.44 20.5772 136.237 19.6694 135.83 18.8711C135.431 18.0729 134.859 17.4428 134.116 16.9812C133.38 16.5194 132.511 16.2885 131.51 16.2885C130.406 16.2885 129.451 16.5625 128.645 17.1102C127.847 17.6502 127.233 18.3545 126.802 19.2233C126.372 20.0921 126.156 21.0233 126.156 22.0174V23.6139C126.156 24.9755 126.391 26.1299 126.861 27.0769C127.338 28.016 128 28.7322 128.845 29.2251C129.69 29.7104 130.672 29.9531 131.791 29.9531C132.519 29.9531 133.177 29.8512 133.764 29.6478C134.358 29.4365 134.871 29.1235 135.301 28.7088C135.732 28.2861 136.065 27.7617 136.299 27.1355L138.976 27.8869C138.694 28.7947 138.221 29.5931 137.555 30.2818C136.89 30.9626 136.068 31.4949 135.09 31.8783C134.112 32.2539 133.012 32.4418 131.791 32.4418ZM143.472 32.0661V14.0346H146.149V16.758H146.336C146.665 15.8659 147.26 15.142 148.121 14.5863C148.982 14.0306 149.952 13.7528 151.032 13.7528C151.236 13.7528 151.49 13.7567 151.795 13.7646C152.1 13.7724 152.331 13.7841 152.488 13.7998V16.6172C152.394 16.5937 152.179 16.5585 151.842 16.5116C151.514 16.4568 151.165 16.4294 150.797 16.4294C149.921 16.4294 149.138 16.6132 148.45 16.9812C147.769 17.3412 147.229 17.842 146.829 18.4838C146.438 19.1177 146.242 19.8417 146.242 20.6555V32.0661H143.472ZM174.646 18.0729L172.157 18.7772C172 18.3625 171.77 17.9593 171.465 17.5681C171.167 17.1689 170.76 16.8403 170.243 16.582C169.727 16.3237 169.066 16.1946 168.26 16.1946C167.155 16.1946 166.236 16.4489 165.501 16.9577C164.773 17.4585 164.409 18.0964 164.409 18.8711C164.409 19.5598 164.659 20.1038 165.16 20.503C165.661 20.902 166.443 21.2347 167.508 21.5008L170.185 22.1582C171.797 22.5494 172.998 23.1481 173.789 23.9542C174.579 24.7526 174.974 25.7817 174.974 27.0417C174.974 28.0747 174.678 28.9982 174.083 29.8122C173.496 30.6261 172.673 31.2678 171.617 31.7374C170.56 32.2069 169.332 32.4418 167.931 32.4418C166.091 32.4418 164.57 32.0426 163.364 31.2443C162.159 30.4461 161.396 29.28 161.075 27.7461L163.705 27.0886C163.955 28.0592 164.429 28.7869 165.125 29.2722C165.83 29.7574 166.749 30 167.884 30C169.175 30 170.2 29.7261 170.959 29.1782C171.726 28.6226 172.109 27.9574 172.109 27.1826C172.109 26.5565 171.891 26.0321 171.453 25.6096C171.015 25.179 170.341 24.8582 169.433 24.6469L166.428 23.9425C164.777 23.5512 163.564 22.9446 162.789 22.123C162.022 21.2934 161.639 20.2564 161.639 19.0121C161.639 17.9945 161.924 17.0945 162.495 16.312C163.075 15.5294 163.861 14.915 164.855 14.4689C165.856 14.0228 166.992 13.7998 168.26 13.7998C170.043 13.7998 171.445 14.1911 172.463 14.9737C173.488 15.7563 174.215 16.7894 174.646 18.0729ZM188.818 8.02405H192.293L200.463 27.9808H200.746L208.916 8.02405H212.39V32.0661H209.666V13.7998H209.432L201.919 32.0661H199.289L191.777 13.7998H191.542V32.0661H188.818V8.02405ZM225.412 32.4418C223.674 32.4418 222.177 32.0583 220.916 31.2912C219.665 30.5165 218.698 29.4365 218.017 28.0512C217.344 26.6582 217.007 25.0382 217.007 23.1912C217.007 21.3443 217.344 19.7164 218.017 18.3076C218.698 16.8911 219.645 15.7876 220.858 14.9972C222.078 14.1989 223.503 13.7998 225.131 13.7998C226.07 13.7998 226.997 13.9563 227.913 14.2693C228.828 14.5824 229.661 15.0911 230.413 15.7955C231.164 16.492 231.764 17.4155 232.21 18.5659C232.655 19.7164 232.878 21.1329 232.878 22.8155V23.9894H218.979V21.5947H230.061C230.061 20.5772 229.858 19.6694 229.451 18.8711C229.051 18.0729 228.479 17.4428 227.737 16.9812C227.002 16.5194 226.132 16.2885 225.131 16.2885C224.027 16.2885 223.073 16.5625 222.266 17.1102C221.468 17.6502 220.853 18.3545 220.423 19.2233C219.992 20.0921 219.777 21.0233 219.777 22.0174V23.6139C219.777 24.9755 220.012 26.1299 220.481 27.0769C220.959 28.016 221.62 28.7322 222.466 29.2251C223.311 29.7104 224.293 29.9531 225.412 29.9531C226.141 29.9531 226.797 29.8512 227.385 29.6478C227.979 29.4365 228.493 29.1235 228.922 28.7088C229.352 28.2861 229.686 27.7617 229.921 27.1355L232.597 27.8869C232.314 28.7947 231.841 29.5931 231.177 30.2818C230.511 30.9626 229.689 31.4949 228.711 31.8783C227.732 32.2539 226.633 32.4418 225.412 32.4418ZM244.372 39.2036C243.033 39.2036 241.883 39.0314 240.919 38.6871C239.957 38.3506 239.155 37.9045 238.513 37.3488C237.879 36.801 237.375 36.214 236.998 35.5879L239.207 34.0383C239.456 34.3669 239.774 34.7426 240.157 35.1653C240.541 35.5957 241.065 35.9674 241.731 36.2805C242.403 36.6013 243.283 36.7618 244.372 36.7618C245.827 36.7618 247.028 36.4096 247.975 35.7053C248.922 35.001 249.395 33.8975 249.395 32.3949V28.7322H249.16C248.957 29.0608 248.668 29.4678 248.293 29.9531C247.924 30.4304 247.392 30.857 246.696 31.2326C246.007 31.6005 245.076 31.7843 243.901 31.7843C242.446 31.7843 241.139 31.44 239.98 30.7512C238.83 30.0626 237.919 29.0608 237.245 27.7461C236.58 26.4312 236.248 24.8347 236.248 22.9564C236.248 21.1094 236.572 19.5012 237.222 18.1316C237.871 16.7542 238.775 15.6898 239.934 14.9385C241.093 14.1793 242.43 13.7998 243.949 13.7998C245.122 13.7998 246.055 13.9954 246.742 14.3867C247.44 14.7702 247.972 15.2085 248.339 15.7015C248.714 16.1868 249.005 16.5859 249.208 16.899H249.489V14.0346H252.165V32.5826C252.165 34.1322 251.813 35.3922 251.109 36.3626C250.413 37.341 249.475 38.057 248.293 38.5109C247.117 38.9727 245.812 39.2036 244.372 39.2036ZM244.278 29.2957C245.389 29.2957 246.327 29.0413 247.094 28.5326C247.861 28.024 248.445 27.2921 248.843 26.3374C249.243 25.3825 249.443 24.24 249.443 22.9094C249.443 21.6102 249.246 20.4638 248.856 19.4699C248.465 18.4759 247.884 17.6972 247.117 17.1337C246.351 16.5702 245.405 16.2885 244.278 16.2885C243.103 16.2885 242.126 16.5859 241.342 17.1807C240.567 17.7755 239.985 18.5737 239.594 19.5755C239.21 20.5772 239.018 21.6886 239.018 22.9094C239.018 24.1617 239.213 25.2691 239.605 26.2317C240.003 27.1864 240.592 27.9378 241.365 28.4856C242.149 29.0256 243.119 29.2957 244.278 29.2957ZM262.544 32.4888C261.402 32.4888 260.364 32.2736 259.433 31.8431C258.501 31.4048 257.762 30.7749 257.213 29.9531C256.666 29.1235 256.392 28.1217 256.392 26.9478C256.392 25.9147 256.595 25.0774 257.003 24.4355C257.41 23.7859 257.954 23.2774 258.635 22.9094C259.316 22.5417 260.066 22.2678 260.888 22.0878C261.717 21.8998 262.552 21.7512 263.389 21.6417C264.484 21.5008 265.372 21.395 266.053 21.3246C266.742 21.2464 267.243 21.1172 267.557 20.9372C267.878 20.7572 268.038 20.4441 268.038 19.9982V19.9041C268.038 18.7459 267.721 17.8459 267.086 17.2041C266.461 16.5625 265.509 16.2416 264.235 16.2416C262.911 16.2416 261.875 16.5311 261.122 17.1102C260.372 17.6894 259.843 18.3076 259.539 18.9651L256.909 18.0259C257.379 16.9302 258.005 16.0772 258.787 15.4668C259.577 14.8485 260.438 14.418 261.37 14.1754C262.309 13.925 263.233 13.7998 264.141 13.7998C264.719 13.7998 265.385 13.8702 266.136 14.0111C266.894 14.1441 267.627 14.4219 268.331 14.8446C269.043 15.2672 269.635 15.905 270.104 16.758C270.574 17.6111 270.808 18.7537 270.808 20.1859V32.0661H268.038V29.6243H267.896C267.709 30.0157 267.395 30.4344 266.957 30.8805C266.519 31.3266 265.936 31.7061 265.208 32.0192C264.481 32.3322 263.592 32.4888 262.544 32.4888ZM262.967 30C264.061 30 264.985 29.7848 265.737 29.3544C266.496 28.924 267.068 28.3683 267.451 27.6874C267.841 27.0064 268.038 26.2904 268.038 25.539V23.0033C267.921 23.1443 267.661 23.2734 267.263 23.3907C266.871 23.5003 266.418 23.5982 265.901 23.6843C265.392 23.7625 264.896 23.8329 264.41 23.8955C263.932 23.9504 263.546 23.9974 263.248 24.0364C262.527 24.1304 261.855 24.283 261.228 24.4942C260.61 24.6977 260.109 25.0069 259.726 25.4216C259.351 25.8286 259.162 26.3843 259.162 27.0886C259.162 28.0512 259.519 28.7792 260.232 29.2722C260.951 29.7574 261.863 30 262.967 30Z" fill="#FF558A"/>
<path d="M158.213 8.02405V10.1371C158.213 10.7789 158.096 11.4637 157.861 12.1915C157.634 12.9115 157.298 13.6119 156.852 14.2928C156.413 14.9659 155.881 15.5528 155.255 16.0537L153.752 14.8328C154.245 14.1285 154.672 13.3967 155.032 12.6376C155.4 11.8706 155.584 11.0528 155.584 10.1841V8.02405H158.213Z" fill="#73D982"/>
</svg>
