<svg width="254" height="58" viewBox="0 0 254 58" fill="none" xmlns="http://www.w3.org/2000/svg">
<mask id="mask0_2055_5271" style="mask-type:luminance" maskUnits="userSpaceOnUse" x="0" y="9" width="40" height="40">
<path d="M40 9H0V49H40V9Z" fill="white"/>
</mask>
<g mask="url(#mask0_2055_5271)">
<path d="M22.7454 38.8679C20.2548 37.5689 19.0256 35.0016 19.9998 33.1337C20.974 31.2659 23.7829 30.8046 26.2735 32.1036C28.7641 33.4026 32.4013 39.6018 32.4013 39.6018C32.4013 39.6018 25.2362 40.1669 22.7454 38.8679Z" fill="#73D982"/>
<path d="M17.2542 38.8679C19.7448 37.5689 20.9741 35.0016 19.9998 33.1337C19.0256 31.2659 16.2168 30.8046 13.7262 32.1036C11.2356 33.4026 7.59839 39.6018 7.59839 39.6018C7.59839 39.6018 14.7636 40.1669 17.2542 38.8679Z" fill="#73D982"/>
<path d="M16.1853 38.2198C16.1853 35.4109 17.8931 33.1337 19.9999 33.1337C22.1066 33.1337 23.8144 35.4109 23.8144 38.2198C23.8144 41.0288 19.9999 47.1205 19.9999 47.1205C19.9999 47.1205 16.1853 41.0288 16.1853 38.2198Z" fill="#73D982"/>
<path d="M18.7283 38.2198C18.7283 36.0055 19.7899 34.1227 21.2714 33.4243C20.8736 33.2367 20.4458 33.1337 19.9999 33.1337C17.8931 33.1337 16.1853 35.4109 16.1853 38.2198C16.1853 41.0288 19.9999 47.1205 19.9999 47.1205C19.9999 47.1205 20.5711 46.2081 21.2714 44.9271C20.1618 42.8974 18.7283 39.942 18.7283 38.2198Z" fill="#4BBA3A"/>
<path d="M27.005 23.3888C32.3631 20.0372 39.4043 21.6321 39.4043 21.6321C39.4043 21.6321 37.7575 28.6612 32.3993 32.0129C27.041 35.3645 20 33.7694 20 33.7694C20 33.7694 21.6466 26.7405 27.005 23.3888Z" fill="#FFDCE7"/>
<path d="M12.995 23.3887C7.63663 20.0371 0.595703 21.6322 0.595703 21.6322C0.595703 21.6322 2.24233 28.6613 7.60063 32.0129C12.9589 35.3645 19.9999 33.7694 19.9999 33.7694C19.9999 33.7694 18.3533 26.7403 12.995 23.3887Z" fill="#FFDCE7"/>
<path d="M9.50791 30.362C5.60234 27.9192 3.66906 23.5232 2.90765 21.3187C1.50039 21.4274 0.595703 21.6322 0.595703 21.6322C0.595703 21.6322 2.24233 28.6613 7.60063 32.0129C12.959 35.3645 19.9999 33.7694 19.9999 33.7694C19.9999 33.7694 19.8784 33.2521 19.5953 32.4321C17.0761 32.6266 12.9457 32.5124 9.50791 30.362Z" fill="#FF749F"/>
<path d="M9.87336 26.402C6.71323 20.9286 8.55622 13.9484 8.55622 13.9484C8.55622 13.9484 15.5227 15.8425 18.6828 21.3159C21.8429 26.7893 20 33.7696 20 33.7696C20 33.7696 13.0335 31.8754 9.87336 26.402Z" fill="#FF97B7"/>
<path d="M12.3148 25.2429C10.1829 21.5503 10.3281 17.1724 10.6483 14.7142C9.40699 14.18 8.55618 13.9484 8.55618 13.9484C8.55618 13.9484 6.71327 20.9286 9.87334 26.402C13.0334 31.8754 20 33.7696 20 33.7696C20 33.7696 20.195 33.0301 20.3494 31.8446C18.0378 30.8498 14.3709 28.8041 12.3148 25.2429Z" fill="#FF749F"/>
<path d="M30.1263 26.402C33.2864 20.9286 31.4434 13.9484 31.4434 13.9484C31.4434 13.9484 24.477 15.8425 21.317 21.3159C18.1568 26.7893 19.9998 33.7696 19.9998 33.7696C19.9998 33.7696 26.9663 31.8754 30.1263 26.402Z" fill="#FF97B7"/>
<path d="M14.9138 22.3258C14.9138 16.0056 19.9999 10.882 19.9999 10.882C19.9999 10.882 25.0861 16.0056 25.0861 22.3258C25.0861 28.646 19.9999 33.7694 19.9999 33.7694C19.9999 33.7694 14.9138 28.646 14.9138 22.3258Z" fill="#FAD8E8"/>
<path d="M17.4568 22.3258C17.4568 18.0681 19.7649 14.3537 21.2715 12.3827C20.5418 11.4279 19.9999 10.882 19.9999 10.882C19.9999 10.882 14.9138 16.0056 14.9138 22.3258C14.9138 28.646 19.9999 33.7694 19.9999 33.7694C19.9999 33.7694 20.5418 33.2236 21.2715 32.2689C19.7649 30.2979 17.4568 26.5835 17.4568 22.3258Z" fill="#FF749F"/>
<path d="M39.9093 21.3161C39.8252 21.1815 39.6907 21.086 39.5358 21.051C39.3956 21.0192 36.2153 20.3159 32.4555 20.8625C32.5664 19.8551 32.5878 18.9148 32.5659 18.1065C32.4991 15.6365 32.0394 13.8702 32.0199 13.7962C31.9366 13.481 31.6022 13.2876 31.2872 13.3732C31.1364 13.4142 27.7178 14.3631 24.534 16.8387C24.0778 15.7159 23.5449 14.7265 23.0508 13.922C21.7579 11.8163 20.4768 10.5164 20.4229 10.4622C20.1931 10.2307 19.8067 10.2306 19.5769 10.4622C19.5229 10.5164 18.2417 11.8163 16.9488 13.922C16.4549 14.7265 15.922 15.716 15.4658 16.8389C12.2825 14.3636 8.86411 13.4144 8.71248 13.3732C8.39747 13.2877 8.06306 13.481 7.97977 13.7963C7.9603 13.8702 7.50064 15.6366 7.4338 18.1066C7.41195 18.915 7.4334 19.8553 7.54443 20.8627C3.78555 20.3159 0.605547 21.019 0.46393 21.051C0.14597 21.123 -0.0590641 21.4505 0.0152408 21.7683C0.0327244 21.8428 0.455348 23.6183 1.5549 25.8311C2.57585 27.8855 4.39851 30.7132 7.28448 32.5184C8.39793 33.2147 9.57902 33.7017 10.7416 34.039C8.8537 36.2967 7.16139 39.1689 7.08438 39.3003C6.86535 39.6736 7.1214 40.1622 7.55158 40.196C7.67198 40.2056 9.18851 40.322 11.0526 40.322C12.6235 40.322 14.4405 40.2387 15.8767 39.9397C16.7563 43.0402 19.3622 47.2255 19.4948 47.437C19.7242 47.8033 20.2758 47.8033 20.505 47.437C20.6376 47.2255 23.2436 43.0403 24.1232 39.9399C25.5586 40.2389 27.3753 40.3218 28.9464 40.3218C30.812 40.3218 32.3302 40.2053 32.4482 40.196C32.8783 40.1622 33.1343 39.6736 32.9153 39.3002C32.8373 39.167 31.1452 36.2954 29.2583 34.0389C30.4207 33.7017 31.6017 33.2147 32.7151 32.5184C35.6011 30.7132 37.4237 27.8855 38.4447 25.8311C39.5444 23.6183 39.9669 21.8428 39.9844 21.7683C40.0206 21.6135 39.9935 21.4508 39.9093 21.3161ZM20.0002 11.7673C21.1926 13.1393 24.4898 17.3813 24.4898 22.3258C24.4898 23.0989 24.4085 23.8966 24.2477 24.6969C24.1829 25.0196 24.392 25.3338 24.7148 25.3986C25.0374 25.4635 25.3517 25.2543 25.4164 24.9317C25.5926 24.0543 25.6819 23.1776 25.6819 22.3258C25.6819 20.7955 25.3923 19.3385 24.965 18.0198C27.2812 16.1323 29.8589 15.1079 31.0006 14.7149C31.3457 16.501 32.0774 21.8306 29.6103 26.104C27.6591 29.4835 24.1359 31.4602 21.8969 32.4334C22.7753 31.2584 23.8677 29.5565 24.6563 27.5147C24.775 27.2076 24.6221 26.8625 24.3151 26.744C24.0078 26.6253 23.6629 26.7782 23.5444 27.0853C22.4806 29.8395 20.7842 31.9827 19.9998 32.8848C18.8077 31.5131 15.5098 27.2706 15.5098 22.3258C15.5098 17.391 18.8088 13.1411 20.0002 11.7673ZM8.9992 14.7149C10.1409 15.1081 12.7186 16.1321 15.0348 18.0196C14.6074 19.3383 14.3178 20.7955 14.3178 22.3258C14.3178 25.7298 15.7486 28.7746 16.9488 30.7296C17.3485 31.3803 17.7469 31.9541 18.1083 32.4379C15.871 31.4678 12.3461 29.4929 10.3895 26.104C7.92206 21.8302 8.65415 16.5003 8.9992 14.7149ZM1.34629 22.1007C2.46873 21.9225 4.97825 21.6409 7.72324 22.0969C7.99678 23.6082 8.49449 25.2059 9.35707 26.7C11.0591 29.648 13.8207 31.5694 15.8376 32.6623C16.4444 32.9911 17.0189 33.2658 17.5335 33.4914C15.0851 33.665 11.1518 33.5311 7.91666 31.5075C3.73254 28.8904 1.87897 23.839 1.34629 22.1007ZM8.62522 39.0661C9.33362 37.9375 10.679 35.8934 12.0388 34.3589C13.4211 34.6418 14.7281 34.7351 15.8047 34.744C15.8671 34.7446 15.9287 34.7448 15.9902 34.7448C16.167 34.7448 16.3395 34.7425 16.5084 34.7387C15.9168 35.7232 15.5893 36.939 15.5893 38.2199C15.5893 38.3944 15.6028 38.58 15.6276 38.7742C13.4614 39.225 10.2315 39.1443 8.62522 39.0661ZM19.9999 45.9676C18.7859 43.8972 16.7814 40.0871 16.7814 38.2197C16.7814 36.8104 17.2467 35.5124 18.0581 34.6501C19.0292 34.5613 19.7229 34.4344 19.9999 34.3785C20.2768 34.4344 20.9702 34.5613 21.9407 34.6501C22.7416 35.5017 23.2184 36.8278 23.2184 38.2197C23.2184 40.0871 21.214 43.8972 19.9999 45.9676ZM31.3743 39.0661C29.7683 39.1441 26.5399 39.2248 24.3721 38.7739C24.3969 38.5799 24.4105 38.3942 24.4105 38.2199C24.4105 36.9362 24.0827 35.7222 23.4912 34.7387C23.6601 34.7425 23.8326 34.7448 24.0095 34.7448C24.0708 34.7448 24.133 34.7446 24.1951 34.744C25.2717 34.7351 26.5786 34.6418 27.9609 34.3589C29.3196 35.8923 30.6657 37.9372 31.3743 39.0661ZM32.0831 31.5075C28.848 33.5311 24.9145 33.665 22.466 33.4914C22.9807 33.2658 23.5551 32.9911 24.1621 32.6623C26.1789 31.5694 28.9406 29.648 30.6426 26.7C31.5052 25.206 32.0029 23.6083 32.2764 22.0971C35.0145 21.6424 37.5292 21.9236 38.6531 22.1012C38.1202 23.8405 36.2665 28.8908 32.0831 31.5075Z" fill="#1A2030"/>
</g>
<path d="M52.1705 42V15.8182H55.3409V39.1875H67.5114V42H52.1705ZM84.5864 33.9716V22.3636H87.6034V42H84.5864V38.6761H84.3818C83.9216 39.6733 83.2057 40.5213 82.2341 41.2202C81.2625 41.9105 80.0352 42.2557 78.5523 42.2557C77.325 42.2557 76.2341 41.9872 75.2795 41.4503C74.325 40.9048 73.575 40.0866 73.0295 38.9957C72.4841 37.8963 72.2114 36.5114 72.2114 34.8409V22.3636H75.2284V34.6364C75.2284 36.0682 75.629 37.2102 76.4301 38.0625C77.2398 38.9148 78.271 39.3409 79.5239 39.3409C80.2739 39.3409 81.0366 39.1491 81.8122 38.7656C82.5963 38.3821 83.2526 37.794 83.781 37.0014C84.3179 36.2088 84.5864 35.1989 84.5864 33.9716ZM101.307 42.4091C99.4657 42.4091 97.8805 41.9744 96.5509 41.1051C95.2214 40.2358 94.1987 39.0384 93.4827 37.5128C92.7668 35.9872 92.4089 34.2443 92.4089 32.2841C92.4089 30.2898 92.7754 28.5298 93.5083 27.0043C94.2498 25.4702 95.281 24.2727 96.6021 23.4119C97.9316 22.5426 99.4827 22.108 101.255 22.108C102.636 22.108 103.88 22.3636 104.988 22.875C106.096 23.3864 107.004 24.1023 107.711 25.0227C108.419 25.9432 108.858 27.017 109.028 28.2443H106.011C105.781 27.3494 105.27 26.5568 104.477 25.8665C103.693 25.1676 102.636 24.8182 101.307 24.8182C100.13 24.8182 99.0992 25.125 98.2129 25.7386C97.335 26.3437 96.6489 27.2003 96.1546 28.3082C95.6688 29.4077 95.4259 30.6989 95.4259 32.1818C95.4259 33.6989 95.6646 35.0199 96.1418 36.1449C96.6276 37.2699 97.3094 38.1435 98.1873 38.7656C99.0737 39.3878 100.113 39.6989 101.307 39.6989C102.091 39.6989 102.802 39.5625 103.442 39.2898C104.081 39.017 104.622 38.625 105.065 38.1136C105.508 37.6023 105.824 36.9886 106.011 36.2727H109.028C108.858 37.4318 108.436 38.4759 107.763 39.4048C107.098 40.3253 106.216 41.0582 105.116 41.6037C104.025 42.1406 102.755 42.4091 101.307 42.4091ZM116.451 34.8409L116.4 31.108H117.014L125.605 22.3636H129.338L120.184 31.6193H119.928L116.451 34.8409ZM113.639 42V15.8182H116.656V42H113.639ZM126.116 42L118.446 32.2841L120.593 30.1875L129.951 42H126.116ZM135.364 49.3636C134.853 49.3636 134.397 49.321 133.996 49.2358C133.595 49.1591 133.318 49.0824 133.165 49.0057L133.932 46.3466C134.665 46.5341 135.313 46.6023 135.875 46.5511C136.438 46.5 136.936 46.2486 137.371 45.7969C137.814 45.3537 138.219 44.6335 138.586 43.6364L139.148 42.1023L131.887 22.3636H135.159L140.58 38.0114H140.784L146.205 22.3636H149.478L141.142 44.8636C140.767 45.8778 140.303 46.7173 139.749 47.3821C139.195 48.0554 138.551 48.554 137.818 48.8778C137.094 49.2017 136.276 49.3636 135.364 49.3636ZM164.394 42V15.8182H180.093V18.6307H167.564V27.4773H178.917V30.2898H167.564V42H164.394ZM188.331 15.8182V42H185.314V15.8182H188.331ZM202.034 42.4091C200.261 42.4091 198.706 41.9872 197.368 41.1435C196.038 40.2997 194.998 39.1193 194.248 37.6023C193.507 36.0852 193.136 34.3125 193.136 32.2841C193.136 30.2386 193.507 28.4531 194.248 26.9276C194.998 25.402 196.038 24.2173 197.368 23.3736C198.706 22.5298 200.261 22.108 202.034 22.108C203.807 22.108 205.358 22.5298 206.687 23.3736C208.025 24.2173 209.065 25.402 209.807 26.9276C210.557 28.4531 210.932 30.2386 210.932 32.2841C210.932 34.3125 210.557 36.0852 209.807 37.6023C209.065 39.1193 208.025 40.2997 206.687 41.1435C205.358 41.9872 203.807 42.4091 202.034 42.4091ZM202.034 39.6989C203.381 39.6989 204.489 39.3537 205.358 38.6634C206.227 37.973 206.871 37.0653 207.288 35.9403C207.706 34.8153 207.915 33.5966 207.915 32.2841C207.915 30.9716 207.706 29.7486 207.288 28.6151C206.871 27.4815 206.227 26.5653 205.358 25.8665C204.489 25.1676 203.381 24.8182 202.034 24.8182C200.687 24.8182 199.579 25.1676 198.71 25.8665C197.841 26.5653 197.197 27.4815 196.78 28.6151C196.362 29.7486 196.153 30.9716 196.153 32.2841C196.153 33.5966 196.362 34.8153 196.78 35.9403C197.197 37.0653 197.841 37.973 198.71 38.6634C199.579 39.3537 200.687 39.6989 202.034 39.6989ZM215.737 42V22.3636H218.652V25.3295H218.856C219.214 24.358 219.862 23.5696 220.8 22.9645C221.737 22.3594 222.794 22.0568 223.97 22.0568C224.192 22.0568 224.469 22.0611 224.801 22.0696C225.133 22.0781 225.385 22.0909 225.555 22.108V25.1761C225.453 25.1506 225.219 25.1122 224.852 25.0611C224.494 25.0014 224.115 24.9716 223.714 24.9716C222.76 24.9716 221.908 25.1719 221.158 25.5724C220.416 25.9645 219.828 26.5099 219.393 27.2088C218.967 27.8991 218.754 28.6875 218.754 29.5739V42H215.737ZM235.11 42.4602C233.866 42.4602 232.737 42.2259 231.722 41.7571C230.708 41.2798 229.903 40.5938 229.306 39.6989C228.71 38.7955 228.411 37.7045 228.411 36.4261C228.411 35.3011 228.633 34.3892 229.076 33.6903C229.519 32.983 230.112 32.429 230.853 32.0284C231.594 31.6278 232.413 31.3295 233.308 31.1335C234.211 30.929 235.119 30.767 236.031 30.6477C237.224 30.4943 238.191 30.3793 238.933 30.3026C239.683 30.2173 240.228 30.0767 240.569 29.8807C240.918 29.6847 241.093 29.3437 241.093 28.858V28.7557C241.093 27.4943 240.748 26.5142 240.058 25.8153C239.376 25.1165 238.34 24.767 236.951 24.767C235.511 24.767 234.381 25.0824 233.563 25.7131C232.745 26.3437 232.17 27.017 231.837 27.733L228.974 26.7102C229.485 25.517 230.167 24.5881 231.019 23.9233C231.88 23.25 232.817 22.7812 233.832 22.517C234.854 22.2443 235.86 22.108 236.849 22.108C237.479 22.108 238.204 22.1847 239.022 22.3381C239.849 22.483 240.646 22.7855 241.413 23.2457C242.188 23.706 242.832 24.4006 243.343 25.3295C243.854 26.2585 244.11 27.5028 244.11 29.0625V42H241.093V39.3409H240.94C240.735 39.767 240.394 40.223 239.917 40.7088C239.44 41.1946 238.805 41.608 238.012 41.9489C237.219 42.2898 236.252 42.4602 235.11 42.4602ZM235.57 39.75C236.763 39.75 237.769 39.5156 238.587 39.0469C239.414 38.5781 240.036 37.973 240.454 37.2315C240.88 36.4901 241.093 35.7102 241.093 34.892V32.1307C240.965 32.2841 240.684 32.4247 240.249 32.5526C239.823 32.6719 239.329 32.7784 238.766 32.8722C238.212 32.9574 237.671 33.0341 237.143 33.1023C236.623 33.1619 236.201 33.2131 235.877 33.2557C235.093 33.358 234.36 33.5241 233.678 33.7543C233.005 33.9759 232.46 34.3125 232.042 34.7642C231.633 35.2074 231.428 35.8125 231.428 36.5795C231.428 37.6278 231.816 38.4205 232.592 38.9574C233.376 39.4858 234.369 39.75 235.57 39.75Z" fill="#FF558A"/>
</svg>
