<svg width="287" height="39" viewBox="0 0 287 39" fill="none" xmlns="http://www.w3.org/2000/svg">
<mask id="mask0_312_9298" style="mask-type:luminance" maskUnits="userSpaceOnUse" x="0" y="4" width="30" height="31">
<path d="M29.555 4.5H0V34.5H29.555V4.5Z" fill="white"/>
</mask>
<g mask="url(#mask0_312_9298)">
<path d="M16.8057 26.901C14.9655 25.9267 14.0573 24.0013 14.7771 22.6003C15.4969 21.1995 17.5723 20.8535 19.4126 21.8278C21.2528 22.802 23.9402 27.4514 23.9402 27.4514C23.9402 27.4514 18.6461 27.8752 16.8057 26.901Z" fill="#73D982"/>
<path d="M12.7487 26.901C14.5889 25.9267 15.4972 24.0013 14.7774 22.6003C14.0576 21.1995 11.9822 20.8535 10.1419 21.8278C8.3017 22.802 5.61426 27.4514 5.61426 27.4514C5.61426 27.4514 10.9085 27.8752 12.7487 26.901Z" fill="#73D982"/>
<path d="M11.959 26.4149C11.959 24.3082 13.2208 22.6003 14.7775 22.6003C16.3341 22.6003 17.5959 24.3082 17.5959 26.4149C17.5959 28.5216 14.7775 33.0904 14.7775 33.0904C14.7775 33.0904 11.959 28.5216 11.959 26.4149Z" fill="#73D982"/>
<path d="M13.8379 26.4149C13.8379 24.7541 14.6224 23.342 15.717 22.8183C15.423 22.6776 15.107 22.6003 14.7775 22.6003C13.2208 22.6003 11.959 24.3082 11.959 26.4149C11.959 28.5216 14.7775 33.0904 14.7775 33.0904C14.7775 33.0904 15.1995 32.4061 15.717 31.4454C14.8972 29.9231 13.8379 27.7065 13.8379 26.4149Z" fill="#4BBA3A"/>
<path d="M19.9531 15.2916C23.9122 12.7779 29.1147 13.9742 29.1147 13.9742C29.1147 13.9742 27.8979 19.2459 23.9389 21.7597C19.9798 24.2734 14.7773 23.0771 14.7773 23.0771C14.7773 23.0771 15.994 17.8054 19.9531 15.2916Z" fill="#FFDCE7"/>
<path d="M9.60196 15.2916C5.64279 12.7779 0.44043 13.9742 0.44043 13.9742C0.44043 13.9742 1.65708 19.246 5.61619 21.7597C9.5753 24.2734 14.7777 23.0771 14.7777 23.0771C14.7777 23.0771 13.5611 17.8053 9.60196 15.2916Z" fill="#FFDCE7"/>
<path d="M7.02544 20.5215C4.13971 18.6893 2.71125 15.3923 2.14867 13.739C1.10888 13.8205 0.44043 13.9741 0.44043 13.9741C0.44043 13.9741 1.65708 19.246 5.61619 21.7596C9.57536 24.2733 14.7777 23.077 14.7777 23.077C14.7777 23.077 14.688 22.689 14.4788 22.074C12.6174 22.2199 9.56555 22.1343 7.02544 20.5215Z" fill="#FF749F"/>
<path d="M7.2947 17.5514C4.95976 13.4463 6.3215 8.21118 6.3215 8.21118C6.3215 8.21118 11.4688 9.63176 13.8038 13.7368C16.1387 17.8419 14.777 23.0771 14.777 23.0771C14.777 23.0771 9.62966 21.6564 7.2947 17.5514Z" fill="#FF97B7"/>
<path d="M9.09864 16.6821C7.5234 13.9127 7.63068 10.6292 7.86725 8.78557C6.95012 8.38492 6.32147 8.21118 6.32147 8.21118C6.32147 8.21118 4.95979 13.4463 7.29469 17.5514C9.62957 21.6564 14.777 23.0771 14.777 23.0771C14.777 23.0771 14.9211 22.5225 15.0352 21.6334C13.3272 20.8872 10.6178 19.353 9.09864 16.6821Z" fill="#FF749F"/>
<path d="M22.2597 17.5514C24.5947 13.4463 23.233 8.21118 23.233 8.21118C23.233 8.21118 18.0856 9.63176 15.7508 13.7368C13.4158 17.8419 14.7775 23.0771 14.7775 23.0771C14.7775 23.0771 19.9249 21.6564 22.2597 17.5514Z" fill="#FF97B7"/>
<path d="M11.0195 14.4942C11.0195 9.75403 14.7775 5.91138 14.7775 5.91138C14.7775 5.91138 18.5355 9.75403 18.5355 14.4942C18.5355 19.2343 14.7775 23.0769 14.7775 23.0769C14.7775 23.0769 11.0195 19.2343 11.0195 14.4942Z" fill="#FAD8E8"/>
<path d="M12.8985 14.4942C12.8985 11.3009 14.6039 8.51513 15.7171 7.03686C15.1779 6.32079 14.7775 5.91138 14.7775 5.91138C14.7775 5.91138 11.0195 9.75403 11.0195 14.4942C11.0195 19.2343 14.7775 23.0769 14.7775 23.0769C14.7775 23.0769 15.1779 22.6676 15.7171 21.9516C14.6039 20.4733 12.8985 17.6875 12.8985 14.4942Z" fill="#FF749F"/>
<path d="M29.488 13.737C29.4259 13.636 29.3265 13.5644 29.212 13.5381C29.1085 13.5143 26.7586 12.9868 23.9805 13.3968C24.0625 12.6412 24.0784 11.936 24.0621 11.3298C24.0128 9.47728 23.6731 8.15256 23.6587 8.09706C23.5972 7.86068 23.3501 7.7156 23.1173 7.7798C23.006 7.81056 20.48 8.52222 18.1275 10.379C17.7905 9.53689 17.3967 8.79477 17.0317 8.19141C16.0764 6.61218 15.1298 5.63726 15.09 5.59655C14.9202 5.42293 14.6347 5.42287 14.4649 5.59655C14.425 5.63726 13.4784 6.61218 12.5231 8.19141C12.1581 8.79483 11.7644 9.53695 11.4273 10.3791C9.07526 8.52263 6.54948 7.81073 6.43744 7.77985C6.20468 7.71566 5.95759 7.86068 5.89605 8.09712C5.88167 8.15261 5.54204 9.47734 5.49265 11.3299C5.47651 11.9361 5.49236 12.6414 5.57439 13.3969C2.79705 12.9868 0.447424 13.5142 0.342787 13.5382C0.107853 13.5922 -0.043641 13.8378 0.0112611 14.0761C0.0241792 14.132 0.336446 15.4637 1.14888 17.1232C1.90323 18.664 3.24995 20.7849 5.38232 22.1387C6.20503 22.661 7.0777 23.0262 7.93671 23.2792C6.54178 24.9725 5.29137 27.1266 5.23447 27.2252C5.07264 27.5051 5.26183 27.8715 5.57968 27.897C5.66864 27.9042 6.78916 27.9914 8.16653 27.9914C9.32722 27.9914 10.6697 27.9289 11.7309 27.7047C12.3808 30.0301 14.3063 33.169 14.4042 33.3277C14.5737 33.6024 14.9813 33.6024 15.1507 33.3277C15.2486 33.169 17.1741 30.0302 17.8241 27.7048C18.8846 27.9291 20.2269 27.9913 21.3878 27.9913C22.7662 27.9913 23.888 27.9039 23.9752 27.897C24.2929 27.8715 24.4821 27.5051 24.3203 27.2251C24.2627 27.1251 23.0124 24.9715 21.6182 23.2791C22.4771 23.0262 23.3497 22.661 24.1724 22.1387C26.3048 20.7849 27.6515 18.664 28.4059 17.1232C29.2184 15.4637 29.5305 14.132 29.5435 14.0761C29.5702 13.96 29.5502 13.838 29.488 13.737ZM14.7777 6.5754C15.6587 7.60439 18.0949 10.7859 18.0949 14.4942C18.0949 15.0741 18.0348 15.6724 17.916 16.2726C17.8681 16.5147 18.0226 16.7503 18.2612 16.7989C18.4995 16.8475 18.7317 16.6907 18.7796 16.4487C18.9098 15.7907 18.9757 15.1331 18.9757 14.4942C18.9757 13.3466 18.7618 12.2538 18.4461 11.2648C20.1574 9.84915 22.062 9.08087 22.9056 8.78607C23.1606 10.1256 23.7012 14.1228 21.8783 17.3279C20.4366 19.8625 17.8335 21.3451 16.1791 22.075C16.8281 21.1937 17.6352 19.9173 18.2179 18.386C18.3056 18.1556 18.1926 17.8968 17.9658 17.8079C17.7388 17.7189 17.4839 17.8336 17.3964 18.0639C16.6103 20.1296 15.3569 21.7369 14.7773 22.4135C13.8965 21.3847 11.4598 18.2029 11.4598 14.4943C11.4598 10.7931 13.8974 7.60575 14.7777 6.5754ZM6.64929 8.78607C7.49286 9.08099 9.39746 9.84903 11.1089 11.2646C10.7931 12.2536 10.579 13.3465 10.579 14.4942C10.579 17.0472 11.6363 19.3308 12.5231 20.7971C12.8184 21.2852 13.1127 21.7155 13.3798 22.0783C11.7267 21.3508 9.12224 19.8696 7.67652 17.3279C5.85342 14.1226 6.39434 10.1252 6.64929 8.78607ZM0.994741 14.3254C1.82408 14.1918 3.6783 13.9806 5.70651 14.3226C5.90862 15.456 6.27637 16.6544 6.91371 17.7749C8.17129 19.9859 10.2118 21.427 11.702 22.2467C12.1504 22.4932 12.5749 22.6993 12.9551 22.8685C11.146 22.9987 8.23975 22.8982 5.84943 21.3805C2.75788 19.4177 1.38833 15.6292 0.994741 14.3254ZM6.37296 27.0495C6.89638 26.2031 7.89043 24.67 8.89517 23.5191C9.91652 23.7313 10.8823 23.8012 11.6777 23.8079C11.7238 23.8084 11.7693 23.8085 11.8148 23.8085C11.9454 23.8085 12.0729 23.8068 12.1976 23.8039C11.7605 24.5423 11.5186 25.4542 11.5186 26.4148C11.5186 26.5457 11.5285 26.6849 11.5469 26.8306C9.9463 27.1687 7.55979 27.1082 6.37296 27.0495ZM14.7774 32.2256C13.8804 30.6728 12.3994 27.8153 12.3994 26.4147C12.3994 25.3577 12.7432 24.3842 13.3427 23.7375C14.0602 23.6709 14.5728 23.5757 14.7774 23.5338C14.982 23.5757 15.4943 23.6709 16.2115 23.7375C16.8032 24.3762 17.1555 25.3708 17.1555 26.4147C17.1555 27.8153 15.6745 30.6728 14.7774 32.2256ZM23.1817 27.0495C21.9951 27.108 19.6097 27.1685 18.008 26.8304C18.0263 26.6848 18.0363 26.5456 18.0363 26.4148C18.0363 25.4521 17.7941 24.5415 17.357 23.8039C17.4819 23.8068 17.6094 23.8085 17.74 23.8085C17.7853 23.8085 17.8313 23.8084 17.8772 23.8079C18.6726 23.8012 19.6383 23.7313 20.6596 23.5191C21.6635 24.6691 22.6581 26.2028 23.1817 27.0495ZM23.7054 21.3805C21.3151 22.8982 18.4087 22.9987 16.5996 22.8685C16.9799 22.6993 17.4043 22.4932 17.8528 22.2467C19.343 21.427 21.3835 19.9859 22.641 17.7749C23.2784 16.6544 23.6462 15.4562 23.8483 14.3228C25.8713 13.9817 27.7294 14.1926 28.5599 14.3259C28.1661 15.6303 26.7964 19.418 23.7054 21.3805Z" fill="#1A2030"/>
</g>
<path d="M38.4229 28.5496V10.5181H49.0744V12.455H40.5739V18.5477H48.2763V20.4847H40.5739V28.5496H38.4229ZM54.528 10.5181V28.5496H52.481V10.5181H54.528ZM63.6898 28.8314C62.487 28.8314 61.4317 28.5408 60.5239 27.9597C59.6217 27.3786 58.9163 26.5656 58.4074 25.5209C57.9044 24.4761 57.6528 23.2552 57.6528 21.8583C57.6528 20.4495 57.9044 19.2199 58.4074 18.1691C58.9163 17.1185 59.6217 16.3026 60.5239 15.7215C61.4317 15.1404 62.487 14.8499 63.6898 14.8499C64.8925 14.8499 65.945 15.1404 66.8471 15.7215C67.755 16.3026 68.4604 17.1185 68.9636 18.1691C69.4723 19.2199 69.7269 20.4495 69.7269 21.8583C69.7269 23.2552 69.4723 24.4761 68.9636 25.5209C68.4604 26.5656 67.755 27.3786 66.8471 27.9597C65.945 28.5408 64.8925 28.8314 63.6898 28.8314ZM63.6898 26.9648C64.6035 26.9648 65.3552 26.7271 65.945 26.2516C66.5348 25.7762 66.9714 25.1511 67.2547 24.3763C67.5381 23.6015 67.6798 22.7621 67.6798 21.8583C67.6798 20.9543 67.5381 20.1121 67.2547 19.3313C66.9714 18.5507 66.5348 17.9197 65.945 17.4383C65.3552 16.9571 64.6035 16.7164 63.6898 16.7164C62.7762 16.7164 62.0244 16.9571 61.4346 17.4383C60.8447 17.9197 60.4082 18.5507 60.1248 19.3313C59.8414 20.1121 59.6998 20.9543 59.6998 21.8583C59.6998 22.7621 59.8414 23.6015 60.1248 24.3763C60.4082 25.1511 60.8447 25.7762 61.4346 26.2516C62.0244 26.7271 62.7762 26.9648 63.6898 26.9648ZM75.4169 28.5496L71.3575 15.026H73.5087L76.3883 25.38H76.5271L79.3722 15.026H81.558L84.3683 25.3448H84.5071L87.3868 15.026H89.538L85.4786 28.5496H83.4663L80.5518 18.1603H80.3436L77.4292 28.5496H75.4169ZM97.3769 28.8314C96.0932 28.8314 94.9859 28.5438 94.0549 27.9685C93.1297 27.3874 92.4155 26.5774 91.9124 25.5385C91.4151 24.4937 91.1665 23.2787 91.1665 21.8935C91.1665 20.5083 91.4151 19.2873 91.9124 18.2307C92.4155 17.1683 93.1153 16.3408 94.0116 15.7479C94.9136 15.1492 95.966 14.8499 97.1688 14.8499C97.8628 14.8499 98.5479 14.9673 99.2245 15.202C99.9011 15.4368 100.517 15.8183 101.072 16.3466C101.627 16.869 102.07 17.5617 102.399 18.4245C102.729 19.2873 102.894 20.3497 102.894 21.6117V22.4921H92.6237V20.6961H100.812C100.812 19.9329 100.661 19.2521 100.361 18.6533C100.066 18.0547 99.6438 17.5821 99.0944 17.2359C98.5508 16.8896 97.9089 16.7164 97.1688 16.7164C96.3535 16.7164 95.648 16.9219 95.0523 17.3327C94.4626 17.7377 94.0086 18.2659 93.6906 18.9175C93.3726 19.5691 93.2135 20.2675 93.2135 21.013V22.2104C93.2135 23.2317 93.387 24.0975 93.734 24.8077C94.0867 25.5121 94.5753 26.0492 95.1999 26.4189C95.8243 26.7828 96.5501 26.9648 97.3769 26.9648C97.9148 26.9648 98.4005 26.8885 98.8342 26.7359C99.2737 26.5774 99.6524 26.3426 99.9704 26.0316C100.288 25.7146 100.534 25.3213 100.708 24.8517L102.685 25.4152C102.477 26.0961 102.127 26.6948 101.636 27.2114C101.144 27.722 100.537 28.1212 99.8144 28.4088C99.0915 28.6904 98.2791 28.8314 97.3769 28.8314ZM106.007 28.5496V15.026H107.985V17.0685H108.124C108.367 16.3994 108.806 15.8565 109.442 15.4398C110.078 15.023 110.796 14.8146 111.594 14.8146C111.744 14.8146 111.932 14.8176 112.157 14.8235C112.383 14.8293 112.553 14.8381 112.669 14.8499V16.9629C112.6 16.9453 112.441 16.9189 112.192 16.8837C111.949 16.8426 111.692 16.8221 111.42 16.8221C110.772 16.8221 110.194 16.9599 109.685 17.2359C109.182 17.5059 108.783 17.8815 108.488 18.3629C108.199 18.8383 108.054 19.3813 108.054 19.9917V28.5496H106.007ZM129.041 18.0547L127.202 18.5829C127.086 18.2719 126.916 17.9695 126.69 17.6761C126.471 17.3767 126.17 17.1303 125.788 16.9365C125.407 16.7428 124.918 16.646 124.322 16.646C123.507 16.646 122.828 16.8367 122.284 17.2183C121.746 17.5939 121.477 18.0723 121.477 18.6533C121.477 19.1699 121.662 19.5779 122.032 19.8773C122.403 20.1765 122.98 20.4261 123.767 20.6256L125.745 21.1187C126.936 21.4121 127.824 21.8611 128.408 22.4657C128.991 23.0645 129.283 23.8363 129.283 24.7813C129.283 25.5561 129.065 26.2487 128.625 26.8592C128.191 27.4696 127.583 27.9509 126.803 28.303C126.022 28.6552 125.115 28.8314 124.079 28.8314C122.72 28.8314 121.596 28.532 120.705 27.9333C119.815 27.3346 119.251 26.46 119.014 25.3096L120.957 24.8165C121.142 25.5444 121.492 26.0902 122.006 26.4542C122.527 26.818 123.206 27 124.045 27C124.999 27 125.756 26.7946 126.317 26.3837C126.883 25.967 127.167 25.468 127.167 24.887C127.167 24.4174 127.006 24.0241 126.682 23.7072C126.358 23.3843 125.86 23.1437 125.19 22.9852L122.969 22.4569C121.749 22.1635 120.853 21.7085 120.28 21.0923C119.714 20.4701 119.43 19.6923 119.43 18.7591C119.43 17.9959 119.641 17.3209 120.063 16.734C120.491 16.1471 121.073 15.6863 121.807 15.3517C122.547 15.0171 123.386 14.8499 124.322 14.8499C125.64 14.8499 126.676 15.1433 127.428 15.7303C128.185 16.3173 128.723 17.0921 129.041 18.0547ZM139.513 10.5181H142.08L148.117 25.4856H148.326L154.362 10.5181H156.929V28.5496H154.917V14.8499H154.743L149.193 28.5496H147.25L141.699 14.8499H141.525V28.5496H139.513V10.5181ZM166.551 28.8314C165.267 28.8314 164.161 28.5438 163.229 27.9685C162.304 27.3874 161.59 26.5774 161.087 25.5385C160.59 24.4937 160.34 23.2787 160.34 21.8935C160.34 20.5083 160.59 19.2873 161.087 18.2307C161.59 17.1683 162.29 16.3408 163.186 15.7479C164.087 15.1492 165.14 14.8499 166.343 14.8499C167.037 14.8499 167.722 14.9673 168.398 15.202C169.075 15.4368 169.691 15.8183 170.246 16.3466C170.801 16.869 171.244 17.5617 171.574 18.4245C171.902 19.2873 172.067 20.3497 172.067 21.6117V22.4921H161.797V20.6961H169.986C169.986 19.9329 169.836 19.2521 169.536 18.6533C169.24 18.0547 168.817 17.5821 168.269 17.2359C167.726 16.8896 167.083 16.7164 166.343 16.7164C165.527 16.7164 164.823 16.9219 164.227 17.3327C163.637 17.7377 163.182 18.2659 162.865 18.9175C162.546 19.5691 162.387 20.2675 162.387 21.013V22.2104C162.387 23.2317 162.561 24.0975 162.908 24.8077C163.261 25.5121 163.749 26.0492 164.374 26.4189C164.998 26.7828 165.724 26.9648 166.551 26.9648C167.089 26.9648 167.574 26.8885 168.009 26.7359C168.447 26.5774 168.827 26.3426 169.145 26.0316C169.462 25.7146 169.709 25.3213 169.882 24.8517L171.86 25.4152C171.651 26.0961 171.301 26.6948 170.811 27.2114C170.318 27.722 169.711 28.1212 168.988 28.4088C168.265 28.6904 167.453 28.8314 166.551 28.8314ZM180.56 33.9028C179.571 33.9028 178.721 33.7736 178.009 33.5154C177.298 33.263 176.706 32.9284 176.231 32.5116C175.763 32.1008 175.39 31.6606 175.112 31.191L176.743 30.0288C176.928 30.2752 177.162 30.557 177.446 30.874C177.729 31.1968 178.116 31.4756 178.608 31.7104C179.105 31.951 179.755 32.0714 180.56 32.0714C181.635 32.0714 182.523 31.8072 183.222 31.279C183.922 30.7508 184.271 29.9232 184.271 28.7962V26.0492H184.098C183.948 26.2956 183.734 26.6009 183.457 26.9648C183.185 27.3228 182.791 27.6428 182.277 27.9245C181.768 28.2004 181.08 28.3383 180.212 28.3383C179.137 28.3383 178.171 28.08 177.315 27.5635C176.465 27.047 175.792 26.2956 175.294 25.3096C174.803 24.3235 174.557 23.1261 174.557 21.7173C174.557 20.3321 174.797 19.1259 175.277 18.0987C175.757 17.0657 176.425 16.2674 177.281 15.7039C178.137 15.1345 179.125 14.8499 180.247 14.8499C181.114 14.8499 181.803 14.9966 182.311 15.2901C182.827 15.5777 183.22 15.9064 183.491 16.2762C183.768 16.6401 183.983 16.9395 184.133 17.1743H184.341V15.026H186.318V28.937C186.318 30.0992 186.058 31.0442 185.538 31.772C185.024 32.5058 184.33 33.0428 183.457 33.3832C182.589 33.7296 181.624 33.9028 180.56 33.9028ZM180.49 26.4718C181.311 26.4718 182.005 26.281 182.571 25.8995C183.138 25.518 183.569 24.9691 183.864 24.253C184.159 23.5369 184.307 22.68 184.307 21.6821C184.307 20.7077 184.162 19.8479 183.873 19.1025C183.584 18.3569 183.155 17.7729 182.589 17.3503C182.022 16.9277 181.323 16.7164 180.49 16.7164C179.622 16.7164 178.9 16.9395 178.321 17.3855C177.749 17.8317 177.319 18.4303 177.029 19.1817C176.746 19.9329 176.604 20.7665 176.604 21.6821C176.604 22.6213 176.748 23.4518 177.038 24.1738C177.332 24.8899 177.767 25.4534 178.339 25.8642C178.917 26.2692 179.634 26.4718 180.49 26.4718ZM193.987 28.8666C193.143 28.8666 192.376 28.7052 191.688 28.3824C191 28.0536 190.454 27.5812 190.048 26.9648C189.644 26.3426 189.441 25.5913 189.441 24.7109C189.441 23.9361 189.591 23.308 189.893 22.8267C190.193 22.3395 190.595 21.958 191.098 21.6821C191.602 21.4063 192.156 21.2009 192.763 21.0659C193.376 20.9249 193.993 20.8135 194.611 20.7313C195.421 20.6257 196.076 20.5463 196.58 20.4935C197.089 20.4349 197.459 20.3379 197.691 20.2029C197.928 20.0679 198.046 19.8331 198.046 19.4987V19.4281C198.046 18.5595 197.812 17.8845 197.343 17.4031C196.881 16.9219 196.178 16.6812 195.236 16.6812C194.258 16.6812 193.492 16.8983 192.936 17.3327C192.382 17.7671 191.991 18.2307 191.766 18.7239L189.823 18.0195C190.17 17.1977 190.633 16.5579 191.211 16.1001C191.795 15.6364 192.431 15.3136 193.12 15.1316C193.813 14.9438 194.496 14.8499 195.167 14.8499C195.594 14.8499 196.086 14.9027 196.641 15.0083C197.201 15.1081 197.742 15.3165 198.262 15.6335C198.789 15.9504 199.226 16.4288 199.573 17.0685C199.92 17.7083 200.093 18.5653 200.093 19.6395V28.5496H198.046V26.7183H197.941C197.803 27.0118 197.571 27.3258 197.248 27.6604C196.924 27.995 196.493 28.2796 195.955 28.5144C195.418 28.7492 194.761 28.8666 193.987 28.8666ZM194.299 27C195.108 27 195.791 26.8386 196.346 26.5158C196.907 26.193 197.329 25.7762 197.613 25.2656C197.901 24.7549 198.046 24.2178 198.046 23.6543V21.7525C197.96 21.8583 197.768 21.9551 197.474 22.0431C197.184 22.1253 196.849 22.1987 196.467 22.2633C196.091 22.3219 195.725 22.3747 195.366 22.4217C195.013 22.4628 194.727 22.498 194.507 22.5273C193.975 22.5978 193.478 22.7123 193.015 22.8707C192.558 23.0233 192.188 23.2552 191.904 23.5663C191.627 23.8715 191.488 24.2883 191.488 24.8165C191.488 25.5385 191.752 26.0844 192.278 26.4542C192.809 26.818 193.484 27 194.299 27Z" fill="#FF558A"/>
<path d="M116.9 10.5181V12.1029C116.9 12.5842 116.813 13.0978 116.639 13.6436C116.472 14.1837 116.223 14.709 115.893 15.2196C115.57 15.7244 115.176 16.1647 114.714 16.5403L113.604 15.6246C113.968 15.0964 114.283 14.5476 114.549 13.9782C114.821 13.403 114.957 12.7896 114.957 12.1381V10.5181H116.9Z" fill="#73D982"/>
<rect x="212" width="75" height="39" rx="5" fill="#FF558A"/>
<path d="M225.017 25H222.381L226.398 13.3636H229.568L233.58 25H230.943L228.028 16.0227H227.938L225.017 25ZM224.852 20.4261H231.08V22.3466H224.852V20.4261ZM239.105 25H234.98V13.3636H239.139C240.31 13.3636 241.317 13.5966 242.162 14.0625C243.007 14.5246 243.656 15.1894 244.111 16.0568C244.569 16.9242 244.798 17.9621 244.798 19.1705C244.798 20.3826 244.569 21.4242 244.111 22.2955C243.656 23.1667 243.003 23.8352 242.151 24.3011C241.302 24.767 240.287 25 239.105 25ZM237.44 22.892H239.003C239.73 22.892 240.342 22.7633 240.838 22.5057C241.338 22.2443 241.713 21.8409 241.963 21.2955C242.217 20.7462 242.344 20.0379 242.344 19.1705C242.344 18.3106 242.217 17.608 241.963 17.0625C241.713 16.517 241.34 16.1155 240.844 15.858C240.348 15.6004 239.736 15.4716 239.009 15.4716H237.44V22.892ZM246.621 13.3636H249.655L252.859 21.1818H252.996L256.2 13.3636H259.234V25H256.848V17.4261H256.751L253.74 24.9432H252.115L249.104 17.3977H249.007V25H246.621V13.3636ZM263.722 13.3636V25H261.261V13.3636H263.722ZM275.479 13.3636V25H273.354L268.291 17.6761H268.206V25H265.746V13.3636H267.905L272.928 20.6818H273.03V13.3636H275.479Z" fill="white"/>
</svg>
