<svg width="287" height="39" viewBox="0 0 287 39" fill="none" xmlns="http://www.w3.org/2000/svg">
<g clip-path="url(#clip0_2044_7905)">
<mask id="mask0_2044_7905" style="mask-type:luminance" maskUnits="userSpaceOnUse" x="0" y="5" width="30" height="30">
<path d="M29.555 5H0V35H29.555V5Z" fill="white"/>
</mask>
<g mask="url(#mask0_2044_7905)">
<path d="M16.8057 27.401C14.9655 26.4267 14.0573 24.5013 14.7771 23.1003C15.4969 21.6995 17.5723 21.3535 19.4126 22.3278C21.2528 23.302 23.9402 27.9514 23.9402 27.9514C23.9402 27.9514 18.6461 28.3752 16.8057 27.401Z" fill="#73D982"/>
<path d="M12.7487 27.401C14.5889 26.4267 15.4972 24.5013 14.7774 23.1003C14.0576 21.6995 11.9822 21.3535 10.1419 22.3278C8.3017 23.302 5.61426 27.9514 5.61426 27.9514C5.61426 27.9514 10.9085 28.3752 12.7487 27.401Z" fill="#73D982"/>
<path d="M11.959 26.9149C11.959 24.8082 13.2208 23.1003 14.7775 23.1003C16.3341 23.1003 17.5959 24.8082 17.5959 26.9149C17.5959 29.0216 14.7775 33.5904 14.7775 33.5904C14.7775 33.5904 11.959 29.0216 11.959 26.9149Z" fill="#73D982"/>
<path d="M13.8379 26.9149C13.8379 25.2541 14.6224 23.842 15.717 23.3183C15.423 23.1776 15.107 23.1003 14.7775 23.1003C13.2208 23.1003 11.959 24.8082 11.959 26.9149C11.959 29.0216 14.7775 33.5904 14.7775 33.5904C14.7775 33.5904 15.1995 32.9061 15.717 31.9454C14.8972 30.4231 13.8379 28.2065 13.8379 26.9149Z" fill="#4BBA3A"/>
<path d="M19.9531 15.7916C23.9122 13.2779 29.1147 14.4742 29.1147 14.4742C29.1147 14.4742 27.8979 19.7459 23.9389 22.2597C19.9798 24.7734 14.7773 23.5771 14.7773 23.5771C14.7773 23.5771 15.994 18.3054 19.9531 15.7916Z" fill="#FFDCE7"/>
<path d="M9.60196 15.7916C5.64279 13.2779 0.44043 14.4742 0.44043 14.4742C0.44043 14.4742 1.65708 19.746 5.61619 22.2597C9.5753 24.7734 14.7777 23.5771 14.7777 23.5771C14.7777 23.5771 13.5611 18.3053 9.60196 15.7916Z" fill="#FFDCE7"/>
<path d="M7.02544 21.0215C4.13971 19.1893 2.71125 15.8923 2.14867 14.239C1.10888 14.3205 0.44043 14.4741 0.44043 14.4741C0.44043 14.4741 1.65708 19.746 5.61619 22.2596C9.57536 24.7733 14.7777 23.577 14.7777 23.577C14.7777 23.577 14.688 23.189 14.4788 22.574C12.6174 22.7199 9.56555 22.6343 7.02544 21.0215Z" fill="#FF749F"/>
<path d="M7.2947 18.0514C4.95976 13.9463 6.3215 8.71118 6.3215 8.71118C6.3215 8.71118 11.4688 10.1318 13.8038 14.2368C16.1387 18.3419 14.777 23.5771 14.777 23.5771C14.777 23.5771 9.62966 22.1564 7.2947 18.0514Z" fill="#FF97B7"/>
<path d="M9.09864 17.1821C7.5234 14.4127 7.63068 11.1292 7.86725 9.28557C6.95012 8.88492 6.32147 8.71118 6.32147 8.71118C6.32147 8.71118 4.95979 13.9463 7.29469 18.0514C9.62957 22.1564 14.777 23.5771 14.777 23.5771C14.777 23.5771 14.9211 23.0225 15.0352 22.1334C13.3272 21.3872 10.6178 19.853 9.09864 17.1821Z" fill="#FF749F"/>
<path d="M22.2597 18.0514C24.5947 13.9463 23.233 8.71118 23.233 8.71118C23.233 8.71118 18.0856 10.1318 15.7508 14.2368C13.4158 18.3419 14.7775 23.5771 14.7775 23.5771C14.7775 23.5771 19.9249 22.1564 22.2597 18.0514Z" fill="#FF97B7"/>
<path d="M11.0195 14.9942C11.0195 10.254 14.7775 6.41138 14.7775 6.41138C14.7775 6.41138 18.5355 10.254 18.5355 14.9942C18.5355 19.7343 14.7775 23.5769 14.7775 23.5769C14.7775 23.5769 11.0195 19.7343 11.0195 14.9942Z" fill="#FAD8E8"/>
<path d="M12.8985 14.9942C12.8985 11.8009 14.6039 9.01513 15.7171 7.53686C15.1779 6.82079 14.7775 6.41138 14.7775 6.41138C14.7775 6.41138 11.0195 10.254 11.0195 14.9942C11.0195 19.7343 14.7775 23.5769 14.7775 23.5769C14.7775 23.5769 15.1779 23.1676 15.7171 22.4516C14.6039 20.9733 12.8985 18.1875 12.8985 14.9942Z" fill="#FF749F"/>
<path d="M29.488 14.237C29.4259 14.136 29.3265 14.0644 29.212 14.0381C29.1085 14.0143 26.7586 13.4868 23.9805 13.8968C24.0625 13.1412 24.0784 12.436 24.0621 11.8298C24.0128 9.97728 23.6731 8.65256 23.6587 8.59706C23.5972 8.36068 23.3501 8.2156 23.1173 8.2798C23.006 8.31056 20.48 9.02222 18.1275 10.879C17.7905 10.0369 17.3967 9.29477 17.0317 8.69141C16.0764 7.11218 15.1298 6.13726 15.09 6.09655C14.9202 5.92293 14.6347 5.92287 14.4649 6.09655C14.425 6.13726 13.4784 7.11218 12.5231 8.69141C12.1581 9.29483 11.7644 10.0369 11.4273 10.8791C9.07526 9.02263 6.54948 8.31073 6.43744 8.27985C6.20468 8.21566 5.95759 8.36068 5.89605 8.59712C5.88167 8.65261 5.54204 9.97734 5.49265 11.8299C5.47651 12.4361 5.49236 13.1414 5.57439 13.8969C2.79705 13.4868 0.447424 14.0142 0.342787 14.0382C0.107853 14.0922 -0.043641 14.3378 0.0112611 14.5761C0.0241792 14.632 0.336446 15.9637 1.14888 17.6232C1.90323 19.164 3.24995 21.2849 5.38232 22.6387C6.20503 23.161 7.0777 23.5262 7.93671 23.7792C6.54178 25.4725 5.29137 27.6266 5.23447 27.7252C5.07264 28.0051 5.26183 28.3715 5.57968 28.397C5.66864 28.4042 6.78916 28.4914 8.16653 28.4914C9.32722 28.4914 10.6697 28.4289 11.7309 28.2047C12.3808 30.5301 14.3063 33.669 14.4042 33.8277C14.5737 34.1024 14.9813 34.1024 15.1507 33.8277C15.2486 33.669 17.1741 30.5302 17.8241 28.2048C18.8846 28.4291 20.2269 28.4913 21.3878 28.4913C22.7662 28.4913 23.888 28.4039 23.9752 28.397C24.2929 28.3715 24.4821 28.0051 24.3203 27.7251C24.2627 27.6251 23.0124 25.4715 21.6182 23.7791C22.4771 23.5262 23.3497 23.161 24.1724 22.6387C26.3048 21.2849 27.6515 19.164 28.4059 17.6232C29.2184 15.9637 29.5305 14.632 29.5435 14.5761C29.5702 14.46 29.5502 14.338 29.488 14.237ZM14.7777 7.0754C15.6587 8.10439 18.0949 11.2859 18.0949 14.9942C18.0949 15.5741 18.0348 16.1724 17.916 16.7726C17.8681 17.0147 18.0226 17.2503 18.2612 17.2989C18.4995 17.3475 18.7317 17.1907 18.7796 16.9487C18.9098 16.2907 18.9757 15.6331 18.9757 14.9942C18.9757 13.8466 18.7618 12.7538 18.4461 11.7648C20.1574 10.3491 22.062 9.58087 22.9056 9.28607C23.1606 10.6256 23.7012 14.6228 21.8783 17.8279C20.4366 20.3625 17.8335 21.8451 16.1791 22.575C16.8281 21.6937 17.6352 20.4173 18.2179 18.886C18.3056 18.6556 18.1926 18.3968 17.9658 18.3079C17.7388 18.2189 17.4839 18.3336 17.3964 18.5639C16.6103 20.6296 15.3569 22.2369 14.7773 22.9135C13.8965 21.8847 11.4598 18.7029 11.4598 14.9943C11.4598 11.2931 13.8974 8.10575 14.7777 7.0754ZM6.64929 9.28607C7.49285 9.58098 9.39746 10.349 11.1089 11.7646C10.7931 12.7536 10.579 13.8465 10.579 14.9942C10.579 17.5472 11.6363 19.8308 12.5231 21.2971C12.8184 21.7852 13.1127 22.2155 13.3798 22.5783C11.7267 21.8508 9.12224 20.3696 7.67652 17.8279C5.85342 14.6226 6.39434 10.6252 6.64929 9.28607ZM0.994741 14.8254C1.82408 14.6918 3.6783 14.4806 5.70651 14.8226C5.90862 15.956 6.27637 17.1544 6.91371 18.2749C8.17129 20.4859 10.2118 21.927 11.702 22.7467C12.1504 22.9932 12.5749 23.1993 12.9551 23.3685C11.146 23.4987 8.23975 23.3982 5.84943 21.8805C2.75788 19.9177 1.38833 16.1292 0.994741 14.8254ZM6.37296 27.5495C6.89638 26.7031 7.89043 25.17 8.89517 24.0191C9.91653 24.2313 10.8823 24.3012 11.6777 24.3079C11.7238 24.3084 11.7693 24.3085 11.8148 24.3085C11.9454 24.3085 12.0729 24.3068 12.1976 24.3039C11.7605 25.0423 11.5186 25.9542 11.5186 26.9148C11.5186 27.0457 11.5285 27.1849 11.5469 27.3306C9.9463 27.6687 7.55979 27.6082 6.37296 27.5495ZM14.7774 32.7256C13.8804 31.1728 12.3994 28.3153 12.3994 26.9147C12.3994 25.8577 12.7432 24.8842 13.3427 24.2375C14.0602 24.1709 14.5728 24.0757 14.7774 24.0338C14.982 24.0757 15.4943 24.1709 16.2115 24.2375C16.8032 24.8762 17.1555 25.8708 17.1555 26.9147C17.1555 28.3153 15.6745 31.1728 14.7774 32.7256ZM23.1817 27.5495C21.9951 27.608 19.6097 27.6685 18.008 27.3303C18.0263 27.1848 18.0363 27.0456 18.0363 26.9148C18.0363 25.9521 17.7941 25.0415 17.357 24.3039C17.4819 24.3068 17.6094 24.3085 17.74 24.3085C17.7853 24.3085 17.8313 24.3084 17.8772 24.3079C18.6726 24.3012 19.6383 24.2313 20.6596 24.0191C21.6635 25.1691 22.6581 26.7028 23.1817 27.5495ZM23.7054 21.8805C21.3151 23.3982 18.4087 23.4987 16.5996 23.3685C16.9799 23.1993 17.4043 22.9932 17.8528 22.7467C19.343 21.927 21.3835 20.4859 22.641 18.2749C23.2784 17.1544 23.6462 15.9562 23.8483 14.8228C25.8713 14.4817 27.7294 14.6926 28.5599 14.8259C28.1661 16.1303 26.7964 19.918 23.7054 21.8805Z" fill="#1A2030"/>
</g>
<path d="M39.1136 28V10.5455H41.2273V26.125H49.3409V28H39.1136ZM60.5909 22.6477V14.9091H62.6023V28H60.5909V25.7841H60.4545C60.1477 26.4489 59.6705 27.0142 59.0227 27.4801C58.375 27.9403 57.5568 28.1705 56.5682 28.1705C55.75 28.1705 55.0227 27.9915 54.3864 27.6335C53.75 27.2699 53.25 26.7244 52.8864 25.9972C52.5227 25.2642 52.3409 24.3409 52.3409 23.2273V14.9091H54.3523V23.0909C54.3523 24.0455 54.6193 24.8068 55.1534 25.375C55.6932 25.9432 56.3807 26.2273 57.2159 26.2273C57.7159 26.2273 58.2244 26.0994 58.7415 25.8438C59.2642 25.5881 59.7017 25.196 60.054 24.6676C60.4119 24.1392 60.5909 23.4659 60.5909 22.6477ZM71.6044 28.2727C70.3771 28.2727 69.3203 27.983 68.4339 27.4034C67.5476 26.8239 66.8658 26.0256 66.3885 25.0085C65.9112 23.9915 65.6726 22.8295 65.6726 21.5227C65.6726 20.1932 65.9169 19.0199 66.4055 18.0028C66.8999 16.9801 67.5874 16.1818 68.468 15.608C69.3544 15.0284 70.3885 14.7386 71.5703 14.7386C72.4908 14.7386 73.3203 14.9091 74.0589 15.25C74.7976 15.5909 75.4027 16.0682 75.8743 16.6818C76.3459 17.2955 76.6385 18.0114 76.7521 18.8295H74.7408C74.5874 18.233 74.2464 17.7045 73.718 17.2443C73.1953 16.7784 72.4908 16.5455 71.6044 16.5455C70.8203 16.5455 70.1328 16.75 69.5419 17.1591C68.9567 17.5625 68.4993 18.1335 68.1697 18.8722C67.8459 19.6051 67.6839 20.4659 67.6839 21.4545C67.6839 22.4659 67.843 23.3466 68.1612 24.0966C68.4851 24.8466 68.9396 25.429 69.5249 25.8438C70.1158 26.2585 70.8089 26.4659 71.6044 26.4659C72.1271 26.4659 72.6016 26.375 73.0277 26.1932C73.4538 26.0114 73.8146 25.75 74.1101 25.4091C74.4055 25.0682 74.6158 24.6591 74.7408 24.1818H76.7521C76.6385 24.9545 76.3572 25.6506 75.9084 26.2699C75.4652 26.8835 74.8771 27.3722 74.1442 27.7358C73.4169 28.0938 72.5703 28.2727 71.6044 28.2727ZM81.5675 23.2273L81.5334 20.7386H81.9425L87.6697 14.9091H90.1584L84.0561 21.0795H83.8857L81.5675 23.2273ZM79.6925 28V10.5455H81.7038V28H79.6925ZM88.0107 28L82.897 21.5227L84.3288 20.125L90.5675 28H88.0107ZM94.0426 32.9091C93.7017 32.9091 93.3977 32.8807 93.1307 32.8239C92.8636 32.7727 92.679 32.7216 92.5767 32.6705L93.0881 30.8977C93.5767 31.0227 94.0085 31.0682 94.3835 31.0341C94.7585 31 95.0909 30.8324 95.3807 30.5312C95.6761 30.2358 95.946 29.7557 96.1903 29.0909L96.5653 28.0682L91.7244 14.9091H93.9062L97.5199 25.3409H97.6562L101.27 14.9091H103.452L97.8949 29.9091C97.6449 30.5852 97.3352 31.1449 96.9659 31.5881C96.5966 32.0369 96.1676 32.3693 95.679 32.5852C95.196 32.8011 94.6506 32.9091 94.0426 32.9091ZM113.129 28V10.5455H123.595V12.4205H115.243V18.3182H122.811V20.1932H115.243V28H113.129ZM128.954 10.5455V28H126.942V10.5455H128.954ZM137.956 28.2727C136.774 28.2727 135.737 27.9915 134.845 27.429C133.959 26.8665 133.266 26.0795 132.766 25.0682C132.271 24.0568 132.024 22.875 132.024 21.5227C132.024 20.1591 132.271 18.9687 132.766 17.9517C133.266 16.9347 133.959 16.1449 134.845 15.5824C135.737 15.0199 136.774 14.7386 137.956 14.7386C139.138 14.7386 140.172 15.0199 141.058 15.5824C141.95 16.1449 142.643 16.9347 143.138 17.9517C143.638 18.9687 143.888 20.1591 143.888 21.5227C143.888 22.875 143.638 24.0568 143.138 25.0682C142.643 26.0795 141.95 26.8665 141.058 27.429C140.172 27.9915 139.138 28.2727 137.956 28.2727ZM137.956 26.4659C138.854 26.4659 139.592 26.2358 140.172 25.7756C140.751 25.3153 141.18 24.7102 141.459 23.9602C141.737 23.2102 141.876 22.3977 141.876 21.5227C141.876 20.6477 141.737 19.8324 141.459 19.0767C141.18 18.321 140.751 17.7102 140.172 17.2443C139.592 16.7784 138.854 16.5455 137.956 16.5455C137.058 16.5455 136.32 16.7784 135.74 17.2443C135.161 17.7102 134.732 18.321 134.453 19.0767C134.175 19.8324 134.036 20.6477 134.036 21.5227C134.036 22.3977 134.175 23.2102 134.453 23.9602C134.732 24.7102 135.161 25.3153 135.74 25.7756C136.32 26.2358 137.058 26.4659 137.956 26.4659ZM146.958 28V14.9091H148.901V16.8864H149.038C149.276 16.2386 149.708 15.7131 150.333 15.3097C150.958 14.9062 151.663 14.7045 152.447 14.7045C152.594 14.7045 152.779 14.7074 153.001 14.7131C153.222 14.7187 153.39 14.7273 153.504 14.7386V16.7841C153.435 16.767 153.279 16.7415 153.035 16.7074C152.796 16.6676 152.543 16.6477 152.276 16.6477C151.64 16.6477 151.072 16.7812 150.572 17.0483C150.077 17.3097 149.685 17.6733 149.396 18.1392C149.112 18.5994 148.969 19.125 148.969 19.7159V28H146.958ZM159.74 28.3068C158.911 28.3068 158.158 28.1506 157.482 27.8381C156.805 27.5199 156.268 27.0625 155.871 26.4659C155.473 25.8636 155.274 25.1364 155.274 24.2841C155.274 23.5341 155.422 22.9261 155.717 22.4602C156.013 21.9886 156.408 21.6193 156.902 21.3523C157.396 21.0852 157.942 20.8864 158.538 20.7557C159.141 20.6193 159.746 20.5114 160.354 20.4318C161.149 20.3295 161.794 20.2528 162.288 20.2017C162.788 20.1449 163.152 20.0511 163.379 19.9205C163.612 19.7898 163.729 19.5625 163.729 19.2386V19.1705C163.729 18.3295 163.499 17.6761 163.038 17.2102C162.584 16.7443 161.893 16.5114 160.967 16.5114C160.007 16.5114 159.254 16.7216 158.709 17.142C158.163 17.5625 157.78 18.0114 157.558 18.4886L155.649 17.8068C155.99 17.0114 156.445 16.392 157.013 15.9489C157.587 15.5 158.212 15.1875 158.888 15.0114C159.57 14.8295 160.24 14.7386 160.899 14.7386C161.32 14.7386 161.803 14.7898 162.348 14.892C162.899 14.9886 163.43 15.1903 163.942 15.4972C164.459 15.804 164.888 16.267 165.229 16.8864C165.57 17.5057 165.74 18.3352 165.74 19.375V28H163.729V26.2273H163.626C163.49 26.5114 163.263 26.8153 162.945 27.1392C162.626 27.4631 162.203 27.7386 161.675 27.9659C161.146 28.1932 160.501 28.3068 159.74 28.3068ZM160.047 26.5C160.842 26.5 161.513 26.3438 162.058 26.0312C162.609 25.7188 163.024 25.3153 163.303 24.821C163.587 24.3267 163.729 23.8068 163.729 23.2614V21.4205C163.643 21.5227 163.456 21.6165 163.166 21.7017C162.882 21.7812 162.553 21.8523 162.178 21.9148C161.808 21.9716 161.447 22.0227 161.095 22.0682C160.749 22.108 160.467 22.142 160.251 22.1705C159.729 22.2386 159.24 22.3494 158.786 22.5028C158.337 22.6506 157.973 22.875 157.695 23.1761C157.422 23.4716 157.286 23.875 157.286 24.3864C157.286 25.0852 157.544 25.6136 158.061 25.9716C158.584 26.3239 159.246 26.5 160.047 26.5Z" fill="#FF558A"/>
</g>
<rect x="212" width="75" height="39" rx="5" fill="#FF558A"/>
<path d="M225.017 25H222.381L226.398 13.3636H229.568L233.58 25H230.943L228.028 16.0227H227.938L225.017 25ZM224.852 20.4261H231.08V22.3466H224.852V20.4261ZM239.105 25H234.98V13.3636H239.139C240.31 13.3636 241.317 13.5966 242.162 14.0625C243.007 14.5246 243.656 15.1894 244.111 16.0568C244.569 16.9242 244.798 17.9621 244.798 19.1705C244.798 20.3826 244.569 21.4242 244.111 22.2955C243.656 23.1667 243.003 23.8352 242.151 24.3011C241.302 24.767 240.287 25 239.105 25ZM237.44 22.892H239.003C239.73 22.892 240.342 22.7633 240.838 22.5057C241.338 22.2443 241.713 21.8409 241.963 21.2955C242.217 20.7462 242.344 20.0379 242.344 19.1705C242.344 18.3106 242.217 17.608 241.963 17.0625C241.713 16.517 241.34 16.1155 240.844 15.858C240.348 15.6004 239.736 15.4716 239.009 15.4716H237.44V22.892ZM246.621 13.3636H249.655L252.859 21.1818H252.996L256.2 13.3636H259.234V25H256.848V17.4261H256.751L253.74 24.9432H252.115L249.104 17.3977H249.007V25H246.621V13.3636ZM263.722 13.3636V25H261.261V13.3636H263.722ZM275.479 13.3636V25H273.354L268.291 17.6761H268.206V25H265.746V13.3636H267.905L272.928 20.6818H273.03V13.3636H275.479Z" fill="white"/>
<defs>
<clipPath id="clip0_2044_7905">
<rect width="202" height="30" fill="white" transform="translate(0 4.5)"/>
</clipPath>
</defs>
</svg>
