<svg width="18" height="22" viewBox="0 0 18 22" fill="none" xmlns="http://www.w3.org/2000/svg">
<path d="M9.00079 21.1562C8.89797 21.1568 8.79605 21.1371 8.70086 21.0982C8.60568 21.0593 8.5191 21.0021 8.4461 20.9296L2.92267 15.4609C2.12522 14.6687 1.49233 13.7266 1.06046 12.6888C0.628587 11.651 0.40625 10.5381 0.40625 9.41402C0.40625 8.28996 0.628587 7.17701 1.06046 6.13923C1.49233 5.10145 2.12522 4.15934 2.92267 3.36714C4.54144 1.76791 6.72528 0.871094 9.00079 0.871094C11.2763 0.871094 13.4601 1.76791 15.0789 3.36714C15.8764 4.15934 16.5093 5.10145 16.9411 6.13923C17.373 7.17701 17.5953 8.28996 17.5953 9.41402C17.5953 10.5381 17.373 11.651 16.9411 12.6888C16.5093 13.7266 15.8764 14.6687 15.0789 15.4609L9.55548 20.9296C9.48248 21.0021 9.39591 21.0593 9.30072 21.0982C9.20553 21.1371 9.10361 21.1568 9.00079 21.1562ZM9.00079 2.40621C7.13615 2.40163 5.34605 3.1379 4.02423 4.45308C3.37323 5.10002 2.85659 5.86931 2.50404 6.71669C2.15149 7.56406 1.97 8.47279 1.97 9.39058C1.97 10.3084 2.15149 11.2171 2.50404 12.0645C2.85659 12.9118 3.37323 13.6811 4.02423 14.3281L9.00079 19.2734L13.9774 14.3281C14.6284 13.6811 15.145 12.9118 15.4975 12.0645C15.8501 11.2171 16.0316 10.3084 16.0316 9.39058C16.0316 8.47279 15.8501 7.56406 15.4975 6.71669C15.145 5.86931 14.6284 5.10002 13.9774 4.45308C12.6555 3.1379 10.8654 2.40163 9.00079 2.40621Z" fill="white"/>
<path d="M9 13.3438C8.22742 13.3438 7.47219 13.1147 6.82981 12.6854C6.18743 12.2562 5.68675 11.6461 5.3911 10.9324C5.09544 10.2186 5.01809 9.43317 5.16881 8.67543C5.31953 7.91769 5.69157 7.22167 6.23787 6.67537C6.78417 6.12907 7.48019 5.75703 8.23793 5.60631C8.99567 5.45559 9.78109 5.53294 10.4949 5.8286C11.2086 6.12425 11.8187 6.62493 12.2479 7.26731C12.6772 7.90969 12.9063 8.66492 12.9063 9.4375C12.9063 10.4735 12.4947 11.4671 11.7621 12.1996C11.0296 12.9322 10.036 13.3438 9 13.3438ZM9 7.09375C8.53645 7.09375 8.08331 7.23121 7.69788 7.48875C7.31246 7.74628 7.01205 8.11232 6.83466 8.54059C6.65727 8.96885 6.61085 9.4401 6.70129 9.89474C6.79172 10.3494 7.01494 10.767 7.34272 11.0948C7.6705 11.4226 8.08812 11.6458 8.54276 11.7362C8.9974 11.8267 9.46865 11.7802 9.89692 11.6028C10.3252 11.4255 10.6912 11.125 10.9488 10.7396C11.2063 10.3542 11.3438 9.90105 11.3438 9.4375C11.3438 8.8159 11.0968 8.21976 10.6573 7.78022C10.2177 7.34068 9.6216 7.09375 9 7.09375Z" fill="white"/>
</svg>
