<svg width="20" height="20" viewBox="0 0 20 20" fill="none" xmlns="http://www.w3.org/2000/svg">
<path fill-rule="evenodd" clip-rule="evenodd" d="M2.42383 2.17798C2.76901 2.17798 3.04883 2.4578 3.04883 2.80298V5.20827H5.45414C5.79932 5.20827 6.07914 5.4881 6.07914 5.83327C6.07914 6.17845 5.79932 6.45827 5.45414 6.45827H2.42383C2.07865 6.45827 1.79883 6.17845 1.79883 5.83327V2.80298C1.79883 2.4578 2.07865 2.17798 2.42383 2.17798Z" fill="#FF749F"/>
<path fill-rule="evenodd" clip-rule="evenodd" d="M2.24134 5.51961C3.78944 2.84405 6.68406 1.04175 10.0003 1.04175C14.9479 1.04175 18.9587 5.05253 18.9587 10.0001C18.9587 14.9476 14.9479 18.9584 10.0003 18.9584C5.05277 18.9584 1.04199 14.9476 1.04199 10.0001C1.04199 9.6549 1.32181 9.37508 1.66699 9.37508C2.01217 9.37508 2.29199 9.6549 2.29199 10.0001C2.29199 14.2573 5.74313 17.7084 10.0003 17.7084C14.2575 17.7084 17.7087 14.2573 17.7087 10.0001C17.7087 5.74288 14.2575 2.29175 10.0003 2.29175C7.14826 2.29175 4.65712 3.84038 3.32328 6.14563C3.15041 6.4444 2.76807 6.54647 2.4693 6.37359C2.17053 6.20072 2.06847 5.81838 2.24134 5.51961Z" fill="#FF749F"/>
<path fill-rule="evenodd" clip-rule="evenodd" d="M10.0025 4.375C10.3477 4.37503 10.6275 4.65488 10.6275 5.00006L10.627 9.74481L13.977 13.0948C14.2211 13.3389 14.2211 13.7346 13.977 13.9787C13.7329 14.2228 13.3372 14.2228 13.0931 13.9787L9.56001 10.4456C9.44279 10.3284 9.37694 10.1694 9.37695 10.0036L9.37745 4.99994C9.37749 4.65476 9.65734 4.37497 10.0025 4.375Z" fill="#FF749F"/>
</svg>
