<svg width="21" height="21" viewBox="0 0 21 21" fill="none" xmlns="http://www.w3.org/2000/svg">
<path d="M9.54894 1.92705C9.8483 1.00574 11.1517 1.00574 11.4511 1.92705L13.0819 6.9463C13.2158 7.35833 13.5997 7.63729 14.033 7.63729H19.3105C20.2792 7.63729 20.682 8.8769 19.8983 9.4463L15.6287 12.5484C15.2782 12.803 15.1315 13.2544 15.2654 13.6664L16.8963 18.6857C17.1956 19.607 16.1411 20.3731 15.3574 19.8037L11.0878 16.7016C10.7373 16.447 10.2627 16.447 9.91221 16.7016L5.64258 19.8037C4.85887 20.3731 3.80439 19.607 4.10374 18.6857L5.7346 13.6664C5.86847 13.2544 5.72181 12.803 5.37132 12.5484L1.10169 9.4463C0.317977 8.8769 0.720754 7.63729 1.68948 7.63729H6.96703C7.40026 7.63729 7.78421 7.35833 7.91809 6.9463L9.54894 1.92705Z" stroke="#FF558A"/>
</svg>
