<svg width="30" height="30" viewBox="0 0 30 30" fill="none" xmlns="http://www.w3.org/2000/svg">
<g clip-path="url(#clip0_605_723)">
<path d="M12.7272 0.0112755C9.32856 0.122795 5.61298 0.404527 4.66795 0.627566C2.66048 1.09125 1.07564 2.676 0.611925 4.68334C0.453441 5.36419 0.224519 7.9174 0.0660351 10.7171C-0.0220117 12.3429 -0.0220117 17.6606 0.0660351 19.2865C0.224519 22.0862 0.453441 24.6394 0.611925 25.3203C1.0052 27.0224 2.2672 28.4897 3.89314 29.1413C4.64447 29.4347 5.36058 29.5404 8.23678 29.7575C12.2752 30.0686 17.3173 30.0804 21.3557 29.7928C23.1754 29.6578 24.8424 29.4875 25.3061 29.376C27.0084 28.9828 28.4758 27.7208 29.1273 26.095C29.368 25.4787 29.4619 24.9681 29.5969 23.4831C30.0019 19.1574 30.1017 14.7905 29.8963 10.6291C29.773 8.12869 29.5265 5.37593 29.3621 4.68334C28.8984 2.67013 27.3136 1.09125 25.3002 0.621696C24.6252 0.469091 21.9662 0.228444 19.36 0.0934475C18.1978 0.0288838 13.7485 -0.0239411 12.7272 0.0112755ZM16.9065 6.02744C18.1391 6.12722 19.542 6.362 20.035 6.55569C20.6983 6.80807 21.3851 7.26002 22.0014 7.85283C23.3045 9.09715 23.6919 9.96583 23.9795 12.2432C24.0793 13.0414 24.0793 15.3187 23.9795 16.117C23.8621 17.062 23.645 18.1067 23.4806 18.5058C22.8525 20.0495 21.0212 21.6636 19.5068 22.0099C18.3269 22.2799 16.2373 22.4736 14.6994 22.4501L13.6722 22.4384L12.5863 23.5594C11.6471 24.522 11.4652 24.6864 11.2773 24.7216C11.0014 24.7685 10.8254 24.7274 10.614 24.5631C10.3323 24.3342 10.2912 24.1405 10.2912 23.0136V21.9864L10.1327 21.9219C9.64553 21.7223 8.9705 21.3701 8.66527 21.1471C7.62045 20.3723 6.75172 19.2806 6.41714 18.3122C6.25279 17.8543 6.02974 16.5278 5.94169 15.5007C5.77147 13.5403 6.06496 10.8169 6.56389 9.74279C7.29174 8.15804 9.01159 6.70829 10.5553 6.3796C11.1834 6.24461 12.2224 6.09787 12.9913 6.02744C13.8131 5.95701 16.0436 5.95114 16.9065 6.02744Z" fill="#6F3FAA"/>
<path d="M13.4315 7.64056C13.3376 7.65229 12.9678 7.69338 12.6098 7.7286C11.6471 7.82251 10.708 8.00446 10.3675 8.16294C9.69836 8.46815 8.8355 9.19595 8.41288 9.80638C7.91982 10.5224 7.7085 11.397 7.57937 13.2341C7.46784 14.813 7.70263 17.1725 8.05482 17.9649C8.48919 18.9509 9.75119 20.0837 10.7314 20.3655L10.9662 20.4359L10.9956 22.1909C11.0191 23.7521 11.0367 23.9517 11.1189 23.9693C11.1775 23.981 11.788 23.4 12.7683 22.3963L14.3179 20.8116H14.9049C16.3136 20.8057 18.4972 20.5768 19.272 20.342C19.8355 20.1718 20.3462 19.8431 20.9214 19.2855C21.4673 18.7514 21.8547 18.2114 21.9956 17.7712C22.1482 17.3134 22.3243 16.1395 22.3947 15.1299C22.5121 13.4513 22.2773 11.215 21.8899 10.3933C21.5729 9.71246 20.986 9.04335 20.2522 8.53858C19.589 8.07489 19.1898 7.95751 17.6226 7.74621C16.9886 7.65816 13.86 7.58186 13.4315 7.64056ZM15.8792 9.63029C17.3526 9.94137 18.597 10.9803 19.1546 12.3772C19.3483 12.8585 19.5244 13.8504 19.495 14.2847C19.4833 14.4784 19.4422 14.5724 19.3483 14.631C19.2368 14.7073 19.2074 14.7015 19.1076 14.6017C19.0137 14.5078 18.9785 14.3669 18.9491 13.9619C18.8494 12.7587 18.5207 12.0133 17.7517 11.2444C17.0239 10.5224 16.3195 10.1996 15.2336 10.094C14.6994 10.047 14.5175 9.92376 14.6231 9.69486C14.6877 9.55399 14.717 9.54225 15.0868 9.54225C15.3099 9.54225 15.6621 9.58334 15.8792 9.63029ZM12.2224 10.2231C12.4513 10.4109 13.1498 11.3442 13.3963 11.7785C13.4961 11.9605 13.5783 12.1776 13.5783 12.2657C13.5783 12.4887 13.4198 12.8057 13.2613 12.9113C12.9678 13.0991 12.7565 13.3632 12.7565 13.5393C12.7565 14.003 13.3083 14.9715 13.9129 15.5702C14.4353 16.0867 15.2453 16.5269 15.6738 16.5269C15.9203 16.5269 15.9556 16.5034 16.296 16.1512C16.8947 15.5349 17.0591 15.5643 18.3563 16.521C19.2837 17.2077 19.3483 17.3427 19.0255 17.9473C18.6615 18.634 17.8691 19.1622 17.3995 19.039C17.0826 18.9509 16.1375 18.5342 15.5447 18.2114C13.8776 17.3016 12.645 16.1923 11.6823 14.7367C11.0895 13.8387 10.2325 12.0133 10.2325 11.6611C10.2384 11.2561 10.6786 10.6692 11.2539 10.2935C11.6823 10.0177 11.9582 9.9942 12.2224 10.2231ZM15.8792 10.7807C16.3664 10.8805 17.0004 11.215 17.3819 11.5672C17.9513 12.0896 18.3269 12.9641 18.3328 13.7506C18.3328 13.9971 18.3093 14.0735 18.2037 14.1439C18.0922 14.2202 18.0569 14.2261 17.9513 14.1556C17.8574 14.0911 17.8221 13.9854 17.7928 13.645C17.7106 12.882 17.4876 12.3948 16.9886 11.9252C16.6188 11.5848 16.1903 11.3853 15.5623 11.2796C15.0986 11.1974 14.987 11.1329 14.987 10.945C14.987 10.7161 15.2864 10.6574 15.8792 10.7807ZM16.2784 12.0778C16.7949 12.295 17.0884 12.7235 17.1413 13.3104C17.1765 13.6743 17.1119 13.8269 16.9182 13.8269C16.7832 13.8269 16.6306 13.6098 16.6306 13.4161C16.6306 13.2106 16.3958 12.7704 16.2197 12.6413C16.1375 12.5826 15.9262 12.5122 15.756 12.477C15.5799 12.4417 15.4097 12.3831 15.3862 12.342C15.3157 12.2304 15.3334 12.0837 15.4331 11.9839C15.5447 11.8724 15.8851 11.9076 16.2784 12.0778Z" fill="#6F3FAA"/>
</g>
<defs>
<clipPath id="clip0_605_723">
<rect width="30" height="30" fill="white"/>
</clipPath>
</defs>
</svg>
