<svg width="32" height="32" viewBox="0 0 32 32" fill="none" xmlns="http://www.w3.org/2000/svg">
<mask id="mask0_2048_7905" style="mask-type:luminance" maskUnits="userSpaceOnUse" x="0" y="0" width="32" height="32">
<path d="M32 0H0V32H32V0Z" fill="white"/>
</mask>
<g mask="url(#mask0_2048_7905)">
<path d="M18.1961 23.8945C16.2037 22.8553 15.2203 20.8015 15.9996 19.3071C16.779 17.8129 19.0262 17.4438 21.0186 18.483C23.0111 19.5223 25.9208 24.4816 25.9208 24.4816C25.9208 24.4816 20.1887 24.9337 18.1961 23.8945Z" fill="#73D982"/>
<path d="M13.8038 23.8945C15.7962 22.8553 16.7796 20.8015 16.0003 19.3071C15.2209 17.8129 12.9738 17.4438 10.9813 18.483C8.98887 19.5223 6.0791 24.4816 6.0791 24.4816C6.0791 24.4816 11.8113 24.9337 13.8038 23.8945Z" fill="#73D982"/>
<path d="M12.9482 23.376C12.9482 21.1289 14.3145 19.3071 15.9999 19.3071C17.6853 19.3071 19.0515 21.1289 19.0515 23.376C19.0515 25.6232 15.9999 30.4965 15.9999 30.4965C15.9999 30.4965 12.9482 25.6232 12.9482 23.376Z" fill="#73D982"/>
<path d="M14.9826 23.376C14.9826 21.6045 15.832 20.0983 17.0171 19.5396C16.6989 19.3895 16.3567 19.3071 15.9999 19.3071C14.3145 19.3071 12.9482 21.1289 12.9482 23.376C12.9482 25.6232 15.9999 30.4965 15.9999 30.4965C15.9999 30.4965 16.4569 29.7666 17.0171 28.7418C16.1295 27.118 14.9826 24.7537 14.9826 23.376Z" fill="#4BBA3A"/>
<path d="M21.604 11.511C25.8905 8.8297 31.5234 10.1057 31.5234 10.1057C31.5234 10.1057 30.206 15.7289 25.9195 18.4103C21.6328 21.0915 16 19.8155 16 19.8155C16 19.8155 17.3173 14.1923 21.604 11.511Z" fill="#FFDCE7"/>
<path d="M10.396 11.5109C6.1093 8.82966 0.476562 10.1057 0.476562 10.1057C0.476562 10.1057 1.79386 15.729 6.0805 18.4103C10.3671 21.0915 15.9999 19.8155 15.9999 19.8155C15.9999 19.8155 14.6826 14.1922 10.396 11.5109Z" fill="#FFDCE7"/>
<path d="M7.60633 17.0896C4.48188 15.1353 2.93524 11.6185 2.32612 9.85498C1.20032 9.9419 0.476562 10.1057 0.476562 10.1057C0.476562 10.1057 1.79386 15.7291 6.0805 18.4103C10.3672 21.0916 15.9999 19.8155 15.9999 19.8155C15.9999 19.8155 15.9027 19.4017 15.6762 18.7457C13.6609 18.9013 10.3566 18.8099 7.60633 17.0896Z" fill="#FF749F"/>
<path d="M7.89859 13.9216C5.37048 9.5429 6.84488 3.95874 6.84488 3.95874C6.84488 3.95874 12.418 5.47402 14.9461 9.85277C17.4742 14.2315 15.9999 19.8157 15.9999 19.8157C15.9999 19.8157 10.4267 18.3004 7.89859 13.9216Z" fill="#FF97B7"/>
<path d="M9.85176 12.9944C8.1462 10.0403 8.26236 6.53797 8.5185 4.57142C7.5255 4.14406 6.84485 3.95874 6.84485 3.95874C6.84485 3.95874 5.37052 9.5429 7.89857 13.9216C10.4266 18.3004 15.9999 19.8157 15.9999 19.8157C15.9999 19.8157 16.1559 19.2241 16.2794 18.2758C14.4301 17.4799 11.4966 15.8434 9.85176 12.9944Z" fill="#FF749F"/>
<path d="M24.1013 13.9216C26.6294 9.5429 25.155 3.95874 25.155 3.95874C25.155 3.95874 19.5819 5.47402 17.0539 9.85277C14.5258 14.2315 16.0001 19.8157 16.0001 19.8157C16.0001 19.8157 21.5733 18.3004 24.1013 13.9216Z" fill="#FF97B7"/>
<path d="M11.9307 10.6606C11.9307 5.60444 15.9996 1.50562 15.9996 1.50562C15.9996 1.50562 20.0684 5.60444 20.0684 10.6606C20.0684 15.7168 15.9996 19.8155 15.9996 19.8155C15.9996 19.8155 11.9307 15.7168 11.9307 10.6606Z" fill="#FAD8E8"/>
<path d="M13.965 10.6606C13.965 7.25444 15.8115 4.28295 17.0168 2.70613C16.433 1.94232 15.9996 1.50562 15.9996 1.50562C15.9996 1.50562 11.9307 5.60444 11.9307 10.6606C11.9307 15.7168 15.9996 19.8155 15.9996 19.8155C15.9996 19.8155 16.433 19.3789 17.0168 18.6151C15.8115 17.0383 13.965 14.0668 13.965 10.6606Z" fill="#FF749F"/>
<path d="M31.9275 9.85287C31.8602 9.74512 31.7525 9.66876 31.6286 9.64072C31.5165 9.61529 28.9722 9.05265 25.9644 9.48999C26.0531 8.68402 26.0703 7.93179 26.0527 7.28515C25.9993 5.30913 25.6315 3.8961 25.6159 3.8369C25.5493 3.58476 25.2818 3.43001 25.0297 3.49849C24.9092 3.5313 22.1742 4.2904 19.6272 6.27092C19.2622 5.37271 18.8359 4.58112 18.4407 3.93754C17.4063 2.25303 16.3814 1.21311 16.3383 1.16968C16.1545 0.984486 15.8454 0.984423 15.6616 1.16968C15.6183 1.21311 14.5934 2.25303 13.5591 3.93754C13.1639 4.58119 12.7376 5.37278 12.3726 6.27105C9.82602 4.29083 7.09129 3.53148 6.96998 3.49854C6.71797 3.43007 6.45044 3.58476 6.38381 3.83696C6.36824 3.89615 6.00051 5.3092 5.94704 7.28521C5.92956 7.93192 5.94672 8.68416 6.03554 9.49011C3.02844 9.05265 0.484437 9.61516 0.371144 9.64078C0.116776 9.69838 -0.0472513 9.96032 0.0121926 10.2146C0.0261795 10.2742 0.364279 11.6946 1.24392 13.4648C2.06068 15.1083 3.51881 17.3705 5.82758 18.8146C6.71835 19.3717 7.66322 19.7613 8.59328 20.0312C7.08296 21.8373 5.72911 24.1351 5.6675 24.2402C5.49228 24.5388 5.69712 24.9297 6.04127 24.9568C6.13758 24.9645 7.35081 25.0576 8.84211 25.0576C10.0988 25.0576 11.5524 24.9909 12.7013 24.7517C13.405 27.2321 15.4898 30.5803 15.5958 30.7496C15.7794 31.0426 16.2206 31.0426 16.404 30.7496C16.5101 30.5803 18.5948 27.2322 19.2986 24.7518C20.4469 24.991 21.9002 25.0574 23.1571 25.0574C24.6496 25.0574 25.8641 24.9642 25.9585 24.9568C26.3026 24.9297 26.5074 24.5388 26.3322 24.2401C26.2698 24.1335 24.9162 21.8363 23.4066 20.031C24.3366 19.7613 25.2814 19.3717 26.1721 18.8146C28.4809 17.3705 29.939 15.1083 30.7558 13.4648C31.6355 11.6946 31.9735 10.2742 31.9875 10.2146C32.0165 10.0907 31.9948 9.96057 31.9275 9.85287ZM16.0002 2.2138C16.9541 3.31138 19.5919 6.70502 19.5919 10.6606C19.5919 11.2791 19.5268 11.9173 19.3981 12.5575C19.3463 12.8157 19.5136 13.067 19.7718 13.1189C20.0299 13.1707 20.2813 13.0034 20.3332 12.7453C20.4741 12.0434 20.5455 11.342 20.5455 10.6606C20.5455 9.43638 20.3138 8.27072 19.972 7.21579C21.825 5.70579 23.8871 4.8863 24.8005 4.57184C25.0766 6.00072 25.6619 10.2644 23.6883 13.6831C22.1273 16.3867 19.3088 17.9681 17.5176 18.7467C18.2202 17.8066 19.0941 16.4452 19.725 14.8117C19.82 14.566 19.6977 14.2899 19.4521 14.1951C19.2063 14.1002 18.9303 14.2225 18.8355 14.4682C17.9845 16.6716 16.6274 18.3861 15.9998 19.1078C15.0461 18.0104 12.4078 14.6164 12.4078 10.6606C12.4079 6.71272 15.0471 3.31284 16.0002 2.2138ZM7.19936 4.57184C8.11271 4.88642 10.1749 5.70567 12.0279 7.21561C11.6859 8.27059 11.4542 9.43633 11.4542 10.6606C11.4542 13.3838 12.5989 15.8196 13.5591 17.3836C13.8788 17.9042 14.1975 18.3632 14.4867 18.7502C12.6968 17.9742 9.87689 16.3943 8.31158 13.6831C6.33765 10.2641 6.92332 6.00022 7.19936 4.57184ZM1.07703 10.4805C1.97498 10.338 3.9826 10.1127 6.17859 10.4775C6.39742 11.6865 6.79559 12.9647 7.48566 14.16C8.84727 16.5183 11.0565 18.0555 12.6701 18.9298C13.1555 19.1928 13.6151 19.4126 14.0268 19.5931C12.068 19.7319 8.9214 19.6248 6.33333 18.0059C2.98603 15.9123 1.50318 11.8712 1.07703 10.4805ZM6.90018 24.0529C7.46689 23.15 8.54318 21.5147 9.63103 20.287C10.7369 20.5134 11.7825 20.588 12.6437 20.5951C12.6937 20.5957 12.743 20.5958 12.7922 20.5958C12.9336 20.5958 13.0716 20.5939 13.2067 20.5909C12.7334 21.3785 12.4714 22.3512 12.4714 23.3758C12.4714 23.5155 12.4822 23.664 12.5021 23.8193C10.7691 24.1799 8.18519 24.1154 6.90018 24.0529ZM15.9999 29.574C15.0287 27.9177 13.4251 24.8697 13.4251 23.3757C13.4251 22.2483 13.7974 21.2099 14.4465 20.52C15.2233 20.449 15.7783 20.3475 15.9999 20.3028C16.2214 20.3475 16.7761 20.449 17.5526 20.52C18.1933 21.2013 18.5747 22.2622 18.5747 23.3757C18.5747 24.8697 16.9712 27.9177 15.9999 29.574ZM25.0994 24.0529C23.8147 24.1153 21.2319 24.1798 19.4977 23.8191C19.5176 23.6638 19.5284 23.5153 19.5284 23.3758C19.5284 22.3489 19.2662 21.3777 18.7929 20.5909C18.9281 20.5939 19.0661 20.5958 19.2076 20.5958C19.2567 20.5958 19.3064 20.5957 19.3561 20.5951C20.2173 20.588 21.2629 20.5134 22.3687 20.287C23.4557 21.5138 24.5326 23.1497 25.0994 24.0529ZM25.6664 18.0059C23.0784 19.6248 19.9316 19.7319 17.9728 19.5931C18.3846 19.4126 18.8441 19.1928 19.3296 18.9298C20.9431 18.0555 23.1525 16.5183 24.514 14.16C25.2042 12.9648 25.6023 11.6866 25.8212 10.4776C28.0116 10.1139 30.0233 10.3388 30.9225 10.4809C30.4962 11.8724 29.0132 15.9126 25.6664 18.0059Z" fill="#1A2030"/>
</g>
</svg>
